<?xml version="1.0" encoding="utf-8"?>
<!-- Generator: Adobe Illustrator 17.0.0, SVG Export Plug-In . SVG Version: 6.00 Build 0)  -->
<!DOCTYPE svg PUBLIC "-//W3C//DTD SVG 1.1//EN" "http://www.w3.org/Graphics/SVG/1.1/DTD/svg11.dtd">
<svg version="1.1" id="Camada_1" xmlns="http://www.w3.org/2000/svg" xmlns:xlink="http://www.w3.org/1999/xlink" x="0px" y="0px"
	 width="3000px" height="3000px" viewBox="0 0 3000 3000" enable-background="new 0 0 3000 3000" xml:space="preserve">
<g>
	<path fill="#604040" d="M1145.386,1437.365c1.11-1.04,1.684-3.346,1.517-5.851c-0.191-2.505-1.09-4.715-2.347-5.583
		c-3.598-2.531-19.157-7.212-21.37-10.853c-0.737-1.231-1.543-2.661-2.366-4.127c-0.752-9.778-1.498-19.556-2.245-29.334
		c-0.711-9.25-0.206-17.215,7.576-18.897c9.977-2.106,15.829-3.078,15.363-9.604c-0.555-7.62-9.303-7.533-13.802-7.194
		c-2.817,0.208-11.738,1.699-20.733,2.401c-14.037,1.101-22.255,0.962-26.751,1.334c-4.484,0.365-10.361,1.145-9.842,7.386
		c0.478,5.435,5.938,6.891,11.038,7.013c13.001,0.303,14.804,1.812,16.227,19.487c1.506,18.846,3.014,37.691,4.531,56.545
		c0.191,2.445,0.392,4.889,0.58,7.334c-0.182,0.018-0.364,0.027-0.546,0.043c-25.174-29.716-50.978-58.973-76.871-88.35
		c-3.496-4.057-5.21-4.178-11.384-3.598c-2.809,0.278-10.87,1.837-26.853,3.416c-21.897,2.176-35.127,2.765-44.957,3.805
		c-9.813,1.048-17.121,1.855-16.329,8.902c0.795,7.316,7.316,7.42,15.716,6.528c10.079-1.084,10.556,3.536,11.642,13.852
		c1.159,11.018,2.321,22.035,3.485,33.053c-0.624,1.89-1.276,3.754-1.875,5.331c-1.508,3.979-16.002,11.391-19.07,14.528
		c-1.075,1.084-1.576,3.416-1.3,5.913c0.28,2.505,1.276,4.664,2.548,5.487c3.693,2.375,19.331,6.554,21.637,10.151
		c0.912,1.421,1.932,3.112,2.93,4.82c0.782,7.289,1.543,14.589,2.314,21.879c2.046,19.521-0.988,22.044-10.766,23.639
		c-7.582,1.361-14.312,2.93-13.497,10.255c0.809,7.307,7.874,6.536,9.518,6.363c2.715-0.304,11.332-2.064,21.402-3.121
		c14.158-1.491,30.86-2.332,34.131-2.652c3.535-0.347,11.145-1.093,10.452-8.418c-0.633-6.519-6.441-6.779-13.107-7.212
		c-11.936-0.737-16.002-5.253-17.589-20.986c-3.077-30.297-6.16-60.594-9.249-90.899c-0.191-1.898-0.382-3.797-0.579-5.695
		c0.188-0.017,0.373-0.044,0.561-0.06c31.415,34.648,62.293,69.531,92.928,104.638c4.906,5.877,10.116,11.997,15.291,17.857
		c3.936,4.334,4.196,4.273,26.024,2.514c19.35-1.543,19.634-1.535,19.09-8.608c-1.404-18.369-2.808-36.729-4.213-55.098
		c0.579-1.568,1.159-3.111,1.699-4.438C1127.574,1447.299,1142.205,1440.374,1145.386,1437.365z M1108.534,1497.069l-3.312,2.947
		c-0.424,0.382-0.944,0.564-1.474,0.564c-0.607,0-1.213-0.251-1.656-0.746l-109.987-123.207c-0.39-0.433-0.589-1.014-0.563-1.603
		c0.035-0.589,0.303-1.136,0.746-1.526l3.311-2.947c0.902-0.824,2.297-0.746,3.129,0.182l109.987,123.206
		c0.39,0.434,0.589,1.015,0.563,1.604C1109.244,1496.132,1108.976,1496.678,1108.534,1497.069z"/>
	<path fill="#604040" d="M1672.53,1193.345c-32.773-13.887-42.95-18.091-42.632-31.476c0.217-10.654,10.359-17.233,21.75-16.922
		c17.372,0.503,22.079,13.237,27.126,22.955c3.708,7.22,5.843,11.13,13.729,11.425c12.13,0.477,12.518-8.504,12.778-14.771
		c0.295-7.082,0.589-14.164,0.884-21.255c0.217-4.907-0.865-6.588-5.115-7.585c-22.649-5.271-38.653-7.108-53.225-7.516
		c-11.72-0.529-83.678-1.543-83.833,53.736c-0.113,25.633,16.306,38.271,33.454,46.975c3.884,1.959,7.748,3.658,11.336,5.366
		c24.014,11.33,39.841,19.192,39.41,34.717c-0.323,11.452-11.02,20.398-29.664,20.016c-20.267-0.382-24.257-11.312-27.95-23.916
		c-2.627-9.302-6.909-23.552-18.583-23.648c-13.055-0.086-13.144,14.659-13.144,17.372c-0.035,7.455-0.059,14.909-0.093,22.365
		c-0.035,8.729,3.251,11.477,8.97,13.965c22.668,9.666,51.552,10.506,56.476,10.628c50.113,1.109,85.099-23.354,86.867-60.168
		c0.009-0.087,0.009-0.182,0.018-0.278C1712.651,1211.801,1683.938,1198.044,1672.53,1193.345z M1683.511,1255.492
		c-0.113,0.581-0.451,1.093-0.945,1.422c-0.364,0.242-0.797,0.373-1.23,0.373c-0.147,0-0.295-0.018-0.443-0.044l-4.351-0.893
		c-1.197-0.242-1.968-1.404-1.734-2.6c0.2-1.023,4.412-25.078-38.419-36.972c-46.134-12.82-44.938-43.976-44.869-45.293
		c0.035-0.589,0.304-1.144,0.746-1.535c0.442-0.39,1.066-0.564,1.603-0.564l4.438,0.269c1.222,0.078,2.15,1.118,2.089,2.341
		c-0.06,1.031-0.936,25.304,38.367,36.218C1689.363,1222.275,1683.78,1254.14,1683.511,1255.492z"/>
	<path fill="#604040" d="M1515.317,1390.616c-33.002-12.552-43.17-16.409-43.361-29.786c-0.164-10.645,9.573-17.606,20.805-17.735
		c17.155-0.191,22.315,12.335,27.687,21.837c3.947,7.073,6.215,10.878,14.035,10.836c12.006-0.044,12.014-9.042,11.99-15.31
		c-0.02-7.091-0.035-14.181-0.054-21.272c0-4.915-1.144-6.545-5.366-7.352c-22.536-4.282-38.33-5.495-52.705-5.322
		c-11.547-0.008-82.395,1.457-80.832,56.65c0.691,25.624,17.404,37.734,34.724,45.839c3.909,1.829,7.818,3.39,11.445,4.958
		c24.261,10.463,40.324,17.684,40.5,33.218c0.119,11.46-10.171,20.831-28.814,21.134c-20.261,0.346-24.595-10.437-28.71-22.92
		c-2.967-9.197-7.665-23.292-19.29-23.006c-12.977,0.329-12.578,15.066-12.5,17.78c0.2,7.455,0.407,14.91,0.606,22.356
		c0.237,8.729,3.572,11.374,9.399,13.671c22.952,8.946,51.855,8.72,56.786,8.659c50.156-0.763,84.018-26.838,84.096-63.67
		c0-0.095,0-0.191,0-0.278C1555.782,1407.329,1526.812,1394.863,1515.317,1390.616z M1526.142,1454.627
		c-0.113,0.581-0.451,1.093-0.945,1.422c-0.364,0.242-0.797,0.373-1.231,0.373c-0.147,0-0.295-0.018-0.442-0.043l-4.351-0.893
		c-1.197-0.242-1.968-1.404-1.734-2.601c0.199-1.023,4.413-25.077-38.419-36.971c-46.134-12.821-44.938-43.976-44.869-45.293
		c0.035-0.589,0.304-1.144,0.746-1.535c0.442-0.39,1.048-0.52,1.603-0.564l4.438,0.269c1.222,0.078,2.15,1.119,2.09,2.341
		c-0.061,1.031-0.937,25.304,38.366,36.217C1531.993,1421.409,1526.41,1453.275,1526.142,1454.627z"/>
	<path fill="#604040" d="M1754,1363.744c-2.499-8.816-4.744-17.624-6.981-26.431c-0.335-1.326-1.568-2.705-4.057-3.372
		c-2.2-0.606-9.388-0.268-9.388-0.268c-24.322-0.737-48.663-1.309-73.007-1.742c-24.342-0.425-48.683-0.693-73.024-0.815
		c0,0-7.149-0.589-9.379-0.069c-2.512,0.589-3.789,1.924-4.177,3.233c-2.533,8.72-5.097,17.45-7.906,26.171
		c-0.574,1.907-1.684,6.267-1.693,8.72c0.009,4.369,3.338,7.914,9.484,7.931c8.382,0.027,10.924-3.519,19.374-15.742
		c6.796-9.77,9.893-11.399,30.097-11.191c6.727,0.086,6.71,1.716,6.608,10.445c-0.141,10.723-0.271,21.455-0.399,32.178
		c-1.016,2.141-2.066,4.326-2.984,6.129c-1.994,3.771-17.214,9.439-20.614,12.197c-1.194,0.953-1.959,3.216-1.976,5.721
		c-0.024,2.514,0.702,4.785,1.881,5.748c3.372,2.791,18.412,8.773,20.278,12.613c0.882,1.829,1.87,4.022,2.818,6.198
		c-0.069,5.34-0.132,10.679-0.202,16.02c-0.284,24.28-0.624,27.809-12.136,28.234c-5.765,0.208-12.604,0.433-12.662,7.524
		c-0.063,7.36,6.501,7.412,9.51,7.447c3.586,0.026,27.035-0.433,44.149-0.217c17.095,0.39,40.549,1.664,44.12,1.768
		c3.011,0.069,9.571,0.242,9.772-7.108c0.182-7.099-6.651-7.55-12.407-7.975c-11.494-0.815-11.694-4.36-11.139-28.632
		c0.122-5.47,0.251-10.94,0.373-16.409c0.953-2.003,1.968-4.023,2.86-5.704c2.005-3.789,17.234-9.224,20.692-11.902
		c1.216-0.92,2.022-3.164,2.1-5.678c0.069-2.514-0.633-4.793-1.788-5.782c-3.303-2.878-18.343-9.075-20.163-12.915
		c-0.83-1.726-1.723-3.789-2.607-5.843c0.241-10.853,0.492-21.698,0.737-32.551c0.197-8.729,0.241-10.368,6.967-10.212
		c20.217,0.502,23.258,2.254,29.692,12.249c8.033,12.517,10.428,16.131,18.809,16.4c6.137,0.2,9.624-3.225,9.761-7.594
		C1755.491,1370.072,1754.52,1365.668,1754,1363.744z M1663.478,1485.098c-0.017,1.214-1.005,2.193-2.219,2.193c0,0-0.017,0-0.026,0
		l-4.438-0.051c-0.589-0.009-1.153-0.252-1.56-0.668c-0.416-0.425-0.641-0.989-0.633-1.578l1.708-136.842
		c0.018-1.213,1.006-2.193,2.219-2.193h0.026l4.438,0.052c0.59,0.009,1.153,0.251,1.56,0.667c0.416,0.425,0.642,0.988,0.633,1.577
		L1663.478,1485.098z"/>
	<path fill="#604040" d="M2170.915,1519.154c-4.241-1.552-9.087-2.635-12.294-6.268c-3.318-3.944-11.92-30.149-21.288-60.064
		c0.477-0.329,0.943-0.659,1.361-0.928c1.246-0.832,2.254-3.007,2.503-5.504c0.251-2.505-0.278-4.837-1.344-5.903
		c-3.103-3.103-8.608-9.518-10.14-13.497c-0.746-1.968-1.606-4.343-2.375-6.684c-0.011,0.061-0.011,0.113-0.02,0.165
		c-9.368-30.557-17.734-58.184-19.521-63.74c-1.526-4.793-3.545-7.48-25.46-9.475c-22.486-2.019-27.106,2.271-28.266,5.999
		c-1.222,4.265-5.028,12.422-7.05,16.367c-6.978,13.801-13.998,27.661-20.95,41.522c-1.198,2.15-2.445,4.351-3.554,6.146
		c-2.219,3.632-8.775,8.955-12.378,11.451c-1.242,0.867-2.193,3.061-2.395,5.566c-0.191,2.505,0.382,4.82,1.482,5.868
		c0.477,0.451,1.016,1.006,1.571,1.586c-6.382,12.864-12.736,25.755-19.01,38.602c-9.13,18.178-11.046,18.585-15.805,19.591
		c-3.512,0.642-6.657,1.248-8.885,2.644c-1.786-1.352-4.768-2.219-9.49-3.424c-9.457-2.314-12.977-11.304-15.554-18.031
		c-5.392-13.757-11.111-27.8-16.615-41.548c-4.066-10.099-5.435-10.741-16.741-11.98c10.595-0.442,18.759-2.106,26.006-6.545
		c8.391-4.915,17.695-14.121,18.828-30.722c1.534-21.723-16.687-48.275-63.142-50.971c-29.551-1.664-44.201-1.586-72.06-2.86
		c-27.852-1.231-38.231-2.384-43.857-2.61c-3.094-0.121-9.854-0.364-10.114,6.996c-0.251,7.083,6.475,7.603,12.637,8.105
		c11.774,0.988,11.921,4.569,10.968,28.537c-0.269,6.649-0.529,13.297-0.8,19.937c-0.971,1.933-1.974,3.858-2.861,5.471
		c-2.078,3.727-17.45,8.963-20.941,11.624c-1.207,0.919-2.048,3.156-2.141,5.67c-0.098,2.514,0.596,4.802,1.723,5.79
		c3.311,2.887,18.161,9.267,19.929,13.177c0.771,1.664,1.586,3.667,2.401,5.669c-0.225,5.895-0.466,11.789-0.693,17.684
		c-0.936,23.163-1.35,26.699-12.882,26.794c-5.754,0.061-12.604,0.087-12.864,7.187c-0.26,7.351,6.294,7.585,9.31,7.698
		c6.278,0.208,37.995,0.684,45.102,1.031c4.101,0.173,24.266,1.959,28.91,2.21c16.653,0.841,21.292,1.119,21.671-5.704
		c0.269-5.166-2.912-6.978-9.934-9.257c-8.095-2.61-8.788-5.375-8.183-17.355c0.574-11.356,1.153-22.703,1.725-34.05
		c0.356-6.805,0.618-6.797,7.811-6.424c6.357,0.338,7.197,0.382,9.596,7.325c6.192,18.915,12.57,37.838,18.604,57.039
		c3.487,10.853,4.302,10.896,10.316,11.261c8.185,0.485,21.064,0.45,31.441,1.135c10.385,0.667,20.945,2.219,31.328,2.947
		c1.71,0.122,6.059,0.425,9.139-1.214c2.193,2.003,5.754,2.288,7.505,2.419c4.111,0.303,13.974,0.208,28.433,1.343
		c9.304,0.729,21.195,2.532,23.925,2.766c2.176,0.182,8.454,0.702,9.052-6.363c0.483-5.713-2.739-6.797-9.397-9.267
		c-7.212-2.791-11.911-5.903-11.366-12.691c0.305-3.814,3.354-10.957,4.822-15.205c2.529-7.186,4.453-7.038,10.218-6.553
		c14.306,1.179,28.608,2.427,42.901,3.718c7.423,0.676,7.707,0.702,11.61,15.309c1.656,5.903,3.623,11.564,3.188,16.176
		c-0.379,4.082-6.187,4.091-9.475,4.057c-7.704-0.156-13.479-0.13-14.067,6.388c-0.678,7.612,8.851,8.469,11.847,8.747
		c7.369,0.641,39.306,2.896,45.851,3.58c18.505,1.837,39.11,4.88,45.915,5.617c3.805,0.407,10.723,0.069,11.365-5.626
		C2178.619,1521.919,2173.045,1519.934,2170.915,1519.154z M1819.027,1490.533c-0.027,0.589-0.287,1.144-0.72,1.543
		c-0.416,0.373-0.945,0.581-1.499,0.581h-0.104l-4.43-0.199c-1.222-0.061-2.167-1.093-2.115-2.315l6.051-136.712
		c0.06-1.23,1.144-2.201,2.314-2.123l4.438,0.191c0.589,0.026,1.144,0.286,1.544,0.719c0.399,0.434,0.606,1.006,0.581,1.595
		L1819.027,1490.533z M1884.237,1388.466c-0.416,7.099-2.846,30.392-28.097,29.066c-7.498-0.39-7.334-3.38-7.045-9.093
		c0.702-13.801,1.404-27.601,2.096-41.401c0.364-7.36,0.644-12.544,11.581-11.972
		C1880.752,1356.011,1884.904,1376.764,1884.237,1388.466z M2070.999,1451.113c-0.156,1.899-2.208,2.809-6.068,2.462
		c-9.926-0.884-19.869-1.742-29.792-2.575c-3.608-0.295-4.068-1.161-3.962-2.522c0.078-1.084,0.821-3.216,2.176-6.112
		c5.739-12.11,12.038-23.899,17.571-36.01c2.052-4.481,3.171-7.671,4.3-7.576c0.821,0.069,1.263,1.482,2.789,6.545
		c3.918,13.211,7.811,25.876,11.661,38.818C2070.99,1448.097,2071.122,1449.744,2070.999,1451.113z M2124.221,1509.152l-4.265,1.248
		c-0.208,0.061-0.416,0.087-0.624,0.087c-0.373,0-0.737-0.095-1.066-0.269c-0.511-0.286-0.902-0.762-1.066-1.326l-40.743-139.321
		c-0.337-1.179,0.33-2.41,1.509-2.756l4.264-1.249c0.581-0.173,1.18-0.086,1.691,0.182c0.511,0.287,0.901,0.763,1.066,1.327
		l40.742,139.321C2126.068,1507.575,2125.4,1508.806,2124.221,1509.152z"/>
	<path fill="#604040" d="M1924.387,1305.941c-4.256-1.517-9.137-2.557-12.362-6.154c-3.363-3.918-12.186-30.011-21.966-59.788
		c0.511-0.373,0.997-0.719,1.458-1.014c1.263-0.841,2.219-3.026,2.46-5.531c0.217-2.496-0.344-4.828-1.419-5.894
		c-3.166-3.078-8.792-9.423-10.394-13.385c-0.791-1.959-1.673-4.333-2.479-6.657c-0.02,0.156-0.028,0.312-0.043,0.469
		c-9.893-30.583-18.863-58.263-20.763-63.818c-1.266-3.771-3.025-6.198-14.606-7.906c-12.22-2.224-17.489-1.94-26.522-1.279
		c-0.087,0.006-0.156,0.051-0.236,0.061c-9.649,0.9-12.396,3.818-13.187,6.481c-1.153,4.291-4.846,12.517-6.805,16.496
		c-6.863,14.068-13.731,28.216-20.527,42.371c0.011-0.155,0.02-0.312,0.026-0.467c-1.153,2.193-2.373,4.404-3.441,6.223
		c-2.176,3.675-8.657,9.137-12.24,11.712c-1.237,0.893-2.121,3.102-2.263,5.616c-0.13,2.506,0.503,4.811,1.613,5.835
		c0.537,0.485,1.126,1.058,1.759,1.682c-6.128,12.951-12.212,25.936-18.167,38.895c-8.695,18.386-10.604,18.838-15.352,19.964
		c-6.397,1.326-11.67,2.445-11.945,8.435c-0.314,6.813,6.796,7.151,9.516,7.29c3.892,0.19,13.02-0.095,26.286,0.563
		c6.662-16.057,13.492-32.074,20.336-48.09c14.11,0.89,41.851,2.57,51.281,3.265c7.457,0.555,7.767,0.581,11.896,15.127
		c1.768,5.887,3.814,11.513,3.448,16.133c-0.329,4.082-6.118,4.178-9.431,4.195c-7.715-0.044-13.503,0.096-13.974,6.614
		c-0.546,7.62,8.998,8.322,11.999,8.556c7.369,0.511,39.336,2.323,45.889,2.947c18.534,1.622,39.173,4.473,45.978,5.167
		c3.805,0.381,10.723,0,11.332-5.695C1932.12,1308.663,1926.539,1306.704,1924.387,1305.941z M1823.26,1239.088
		c-0.138,1.899-2.184,2.843-6.059,2.566c-5.243-0.381-10.487-0.745-15.74-1.101l-20.151-1.695
		c8.032-18.62,16.135-37.223,24.329-55.804c4.915,14.921,13.792,41.666,16.167,49.082
		C1823.19,1236.072,1823.348,1237.719,1823.26,1239.088z M1879.101,1295.819c-0.287,0.511-0.763,0.902-1.327,1.066l-4.264,1.249
		c-0.209,0.06-0.416,0.086-0.624,0.086c-0.962,0-1.838-0.624-2.124-1.586l-42.744-143.872c-0.321-1.066,0.199-2.193,1.204-2.652
		l4.3-1.951c0.589-0.26,1.266-0.26,1.837,0c0.589,0.269,1.031,0.772,1.214,1.387l42.711,144.574
		C1879.447,1294.692,1879.378,1295.299,1879.101,1295.819z"/>
	<path fill="#604040" d="M1556.597,1211.653c-2.809-2.306-16.549-6.649-19.216-10.221c-5.282-33.513-35.058-74.983-108.94-73.024
		c-46.802,1.266-95.432,31.406-100.519,78.616c-2.412,3.771-16.074,9.084-18.819,11.616c-1.12,1.023-1.777,3.329-1.606,5.843
		c0.158,2.505,1.057,4.724,2.288,5.599c3.58,2.557,19.108,7.499,21.229,11.208c0.384,0.694,0.824,1.482,1.248,2.271
		c14.399,39.086,57.432,64.061,104.569,62.778c44.767-1.266,82.664-28.243,96.317-64.755c0.962-2.132,1.97-4.291,2.852-6.076
		c1.916-3.832,17.131-9.631,20.544-12.387c1.197-0.954,1.959-3.208,1.977-5.722
		C1558.522,1214.886,1557.776,1212.624,1556.597,1211.653z M1395.81,1280.641l-3.034,3.285c-0.433,0.468-1.031,0.71-1.63,0.71
		c-0.468,0-0.936-0.147-1.334-0.442c-20.354-15.265-32.898-36.338-35.325-59.345c-2.506-23.787,5.799-47.548,23.362-66.904
		c0.407-0.442,0.971-0.702,1.56-0.728c0.711,0.017,1.17,0.199,1.612,0.606l3.225,3.052c0.875,0.832,0.928,2.21,0.122,3.103
		c-15.803,17.441-23.275,38.731-21.038,59.934c2.185,20.683,13.61,39.659,32.178,53.434c0.502,0.381,0.823,0.953,0.884,1.577
		C1396.451,1279.548,1396.235,1280.172,1395.81,1280.641z M1440.204,1289.601c-35.236,0.997-43.219-69.782-43.699-81.545
		c-1.015-26.69,2.169-62.084,28.141-62.891c37.171-1.048,44.355,69.617,44.649,85.941c0,0.086,0,0.182,0.009,0.277
		C1469.408,1237.676,1468.646,1288.873,1440.204,1289.601z"/>
	<path fill="#604040" d="M1401.12,1413.093c-2.855-2.201-16.594-6.12-19.333-9.613c-6.256-33.391-36.824-73.813-109.49-70.328
		c-45.597,2.201-92.635,32.334-97.903,78.823c-1.935,3.926-16.256,10.323-19.296,13.202c-1.119,1.039-1.702,3.346-1.526,5.859
		c0.191,2.514,1.099,4.707,2.332,5.574c3.569,2.523,19.06,7.29,21.219,10.984c1.057,1.812,2.273,4.031,3.432,6.198
		c0-0.113-0.015-0.225-0.015-0.347c16.026,36.79,58.146,59.631,103.815,57.421c44.825-2.202,82.055-30.331,94.461-67.311
		c0.858-2.106,1.777-4.222,2.592-5.99c1.801-3.884,16.722-10.142,20.031-13.003c1.135-0.988,1.831-3.267,1.768-5.781
		C1403.137,1416.266,1402.322,1414.03,1401.12,1413.093z M1240.807,1483.164l-2.965,3.346c-0.442,0.495-1.048,0.746-1.664,0.746
		c-0.45,0-0.91-0.139-1.3-0.424c-20.623-14.91-33.531-35.759-36.348-58.722c-2.921-23.734,4.958-47.634,22.184-67.302
		c0.399-0.442,0.953-0.72,1.552-0.755c0.624-0.008,1.17,0.174,1.621,0.581l3.285,2.999c0.884,0.815,0.962,2.193,0.173,3.103
		c-15.5,17.719-22.599,39.13-19.998,60.29c2.531,20.631,14.286,39.398,33.088,52.86c0.511,0.365,0.842,0.928,0.911,1.552
		C1241.423,1482.063,1241.223,1482.696,1240.807,1483.164z M1287.369,1494.058c-35.212,1.734-47.796-66.852-48.483-78.58
		c-1.491-26.673-1.309-63.897,30.019-65.5c36.581-1.795,45.443,68.621,46.11,84.952c0.009,0.087,0.009,0.182,0.015,0.277
		C1315.309,1441.492,1321.367,1492.471,1287.369,1494.058z"/>
	<path fill="#604040" d="M1300.486,1253.852c-11.366,0.711-16.202,11.442-19.593,18.507c-7.758,16.115-12.266,25.72-26.222,26.777
		c-13.679,1.023-34.752-9.197-44.138-48.275c0.137-0.364,0.275-0.737,0.414-1.075c1.58-3.987,16.265-11.061,19.446-14.086
		c1.081-1.04,1.673-3.363,1.482-5.869c-0.201-2.505-1.164-4.706-2.41-5.565c-3.623-2.497-19.368-7.021-21.637-10.637
		c-0.487-0.815-1.086-1.725-1.615-2.661c0.633-29.282,11.139-54.204,34.631-56.016c13.064-0.997,18.299,3.554,29.144,16.462
		c7.125,8.26,13.531,15.187,23.104,14.58c10.149-0.641,9.749-7.16,9.55-10.428c-0.266-4.36-2.598-19.244-3.441-23.561
		c-0.91-5.417-1.376-8.382-7.773-10.176c-8.134-1.951-30.169-5.132-50.711-3.554c-57.733,4.395-101.162,36.954-103.225,84.501
		c-2.326,3.797-15.415,9.449-17.938,11.98c-1.057,1.084-1.586,3.416-1.308,5.921c0.295,2.497,1.292,4.664,2.568,5.479
		c3.717,2.375,19.467,6.545,21.765,10.15c0.182,0.269,0.373,0.59,0.546,0.876c13.168,33.304,48.492,63.584,108.169,58.903
		c8.181-0.624,27.74-2.392,50.971-12.613c7.464-3.476,9.29-4.681,9.29-13.965c0.087-7.654,0.176-15.309,0.26-22.963
		C1311.504,1261.368,1310.999,1253.193,1300.486,1253.852z M1206.653,1288.59l-3.026,3.294c-0.442,0.477-1.039,0.719-1.638,0.719
		c-0.469,0-0.937-0.147-1.335-0.442c-20.345-15.256-32.898-36.33-35.324-59.345c-2.505-23.787,5.782-47.548,23.354-66.905
		c0.407-0.442,0.962-0.702,1.56-0.728c0.469,0.009,1.171,0.2,1.613,0.607l3.233,3.051c0.876,0.824,0.928,2.21,0.122,3.103
		c-15.811,17.451-23.283,38.74-21.038,59.935c2.176,20.683,13.601,39.659,32.16,53.424c0.512,0.382,0.833,0.945,0.893,1.578
		C1207.286,1287.506,1207.078,1288.13,1206.653,1288.59z"/>
</g>
</svg>
