<?xml version="1.0" encoding="UTF-8"?>
<svg width="626px" height="689px" viewBox="0 0 626 689" version="1.1" xmlns="http://www.w3.org/2000/svg" xmlns:xlink="http://www.w3.org/1999/xlink">
    <!-- Generator: Sketch 40.2 (33826) - http://www.bohemiancoding.com/sketch -->
    <title>competition</title>
    <desc>Created with Sketch.</desc>
    <defs>
        <rect id="path-1" x="0" y="6.89655172" width="255" height="473.103448" rx="30"></rect>
        <mask id="mask-2" maskContentUnits="userSpaceOnUse" maskUnits="objectBoundingBox" x="0" y="0" width="255" height="473.103448" fill="white">
            <use xlink:href="#path-1"></use>
        </mask>
        <rect id="path-3" x="0" y="86.8965517" width="255" height="317.241379"></rect>
        <mask id="mask-4" maskContentUnits="userSpaceOnUse" maskUnits="objectBoundingBox" x="0" y="0" width="255" height="317.241379" fill="white">
            <use xlink:href="#path-3"></use>
        </mask>
        <rect id="path-5" x="0" y="8.06034483" width="298" height="552.939655" rx="30"></rect>
        <mask id="mask-6" maskContentUnits="userSpaceOnUse" maskUnits="objectBoundingBox" x="0" y="0" width="298" height="552.939655" fill="white">
            <use xlink:href="#path-5"></use>
        </mask>
        <rect id="path-7" x="0" y="101.560345" width="298" height="370.775862"></rect>
        <mask id="mask-8" maskContentUnits="userSpaceOnUse" maskUnits="objectBoundingBox" x="0" y="0" width="298" height="370.775862" fill="white">
            <use xlink:href="#path-7"></use>
        </mask>
    </defs>
    <g id="Page-1" stroke="none" stroke-width="1" fill="none" fill-rule="evenodd">
        <g id="competition" transform="translate(0.000000, -1.000000)">
            <ellipse id="Oval-2-Copy-4" fill="#CBBFBF" opacity="0.460371377" cx="295" cy="677" rx="295" ry="13"></ellipse>
            <g id="Group-4-Copy" transform="translate(22.000000, 162.000000)">
                <rect id="Rectangle-28-Copy" fill="#BFAEAE" x="0" y="0" width="237.081081" height="473.103448" rx="30"></rect>
                <use id="Rectangle-28" stroke="#6C4B4B" mask="url(#mask-2)" stroke-width="40" xlink:href="#path-1"></use>
                <path d="M80.6351351,54.4827586 L174.456037,54.4827586" id="Line" stroke="#6C4B4B" stroke-width="7" stroke-linecap="round" stroke-linejoin="round"></path>
                <use id="Rectangle" stroke="#6C4B4B" mask="url(#mask-4)" stroke-width="40" xlink:href="#path-3"></use>
            </g>
            <g id="Group-4-Copy-2" transform="translate(248.000000, 116.000000)">
                <rect id="Rectangle-28-Copy" fill="#E3966B" x="0" y="0" width="277.059459" height="552.939655" rx="30"></rect>
                <use id="Rectangle-28" stroke="#6C4B4B" mask="url(#mask-6)" stroke-width="40" xlink:href="#path-5"></use>
                <path d="M94.2324324,63.6767241 L203.874114,63.6767241" id="Line" stroke="#6C4B4B" stroke-width="7" stroke-linecap="round" stroke-linejoin="round"></path>
                <use id="Rectangle" stroke="#6C4B4B" mask="url(#mask-8)" stroke-width="40" xlink:href="#path-7"></use>
            </g>
            <circle id="Oval-9" stroke="#6C4B4B" stroke-width="20" fill="#FFEEEE" cx="504" cy="134" r="107"></circle>
            <polygon id="Rectangle-11" stroke="#E3966B" stroke-width="20" stroke-linecap="round" stroke-linejoin="round" points="453 97.6428571 480.886869 122.599411 504 80 528.624242 122.599411 555 97.6428571 555 171 453 171"></polygon>
            <g id="Group-3-Copy-4" transform="translate(365.000000, 0.000000)" fill="#BFAEAE">
                <g id="Group-2-Copy" transform="translate(223.970563, 267.970563) rotate(-315.000000) translate(-223.970563, -267.970563) translate(211.970563, 255.970563)">
                    <path d="M1.66360898,3.89769951 C1.78546346,3.91618189 1.92714123,3.94854042 2.08363785,3.99829087 C2.55003578,4.14655931 3.02249556,4.40670346 3.47097305,4.81019396 C4.8484169,6.04946579 5.71501921,8.33571797 5.71919925,12.0289284 C5.72338012,15.7228713 4.81632206,18.0408008 3.35778462,19.3368388 C2.87791994,19.7632405 2.36973965,20.0460273 1.86689174,20.2145102 C1.58318436,20.3095684 1.38169712,20.3452127 1.30600537,20.349625 C0.67535045,20.3863874 0.193924041,20.9271168 0.230709392,21.5573779 C0.267494744,22.187639 0.808561991,22.6687648 1.43921691,22.6320024 C1.70667795,22.6164115 2.10570809,22.5458207 2.59409448,22.3821832 C3.37806952,22.1195066 4.15671217,21.6862158 4.87788224,21.0453932 C6.85862127,19.2853334 8.01176366,16.338551 8.00688303,12.0263424 C8.00201652,7.72661761 6.89984137,4.81888208 5.00159018,3.11104533 C4.30085366,2.48060001 3.54201273,2.06276967 2.77710995,1.81960621 C2.29861327,1.66749157 1.90622612,1.6079759 1.64040647,1.60079692 C1.00891017,1.58374214 0.48314701,2.08152574 0.46608157,2.71262771 C0.44901613,3.34372969 0.947110748,3.86916456 1.57860704,3.88621935 C1.57387624,3.88609158 1.60399151,3.88865697 1.66360898,3.89769951 Z" id="Path-2"></path>
                    <path d="M21.0148165,1.81960621 C20.2499138,2.06276967 19.4910728,2.48060001 18.7903363,3.11104533 C16.8920851,4.81888208 15.78991,7.72661761 15.7850435,12.0263424 C15.7801628,16.338551 16.9333052,19.2853334 18.9140443,21.0453932 C19.6352143,21.6862158 20.413857,22.1195066 21.197832,22.3821832 C21.6862184,22.5458207 22.0852485,22.6164115 22.3527096,22.6320024 C22.9833645,22.6687648 23.5244318,22.187639 23.5612171,21.5573779 C23.5980025,20.9271168 23.116576,20.3863874 22.4859211,20.349625 C22.4102294,20.3452127 22.2087421,20.3095684 21.9250348,20.2145102 C21.4221868,20.0460273 20.9140066,19.7632405 20.4341419,19.3368388 C18.9756044,18.0408008 18.0685464,15.7228713 18.0727272,12.0289284 C18.0769073,8.33571797 18.9435096,6.04946579 20.3209534,4.81019396 C20.7694309,4.40670346 21.2418907,4.14655931 21.7082886,3.99829087 C21.8647853,3.94854042 22.006463,3.91618189 22.1283175,3.89769951 C22.187935,3.88865697 22.2180503,3.88609158 22.2133195,3.88621935 C22.8448157,3.86916456 23.3429104,3.34372969 23.3258449,2.71262771 C23.3087795,2.08152574 22.7830163,1.58374214 22.15152,1.60079692 C21.8857004,1.6079759 21.4933132,1.66749157 21.0148165,1.81960621 Z" id="Path-2-Copy-3"></path>
                    <path d="M20.3493287,1.6625702 C20.3308348,1.78434859 20.2984561,1.92593789 20.2486745,2.08233679 C20.1003134,2.5484435 19.8400068,3.02060828 19.4362642,3.46880572 C18.196218,4.84538948 15.9085374,5.71145067 12.2130194,5.7156281 C8.51676851,5.71980636 6.19739077,4.81331468 4.90054302,3.35568798 C4.4738749,2.87612293 4.19091144,2.36825995 4.02232326,1.86572603 C3.92720561,1.58219579 3.89153905,1.38083437 3.88712404,1.30518989 C3.85033869,0.674928752 3.30927144,0.193802952 2.67861652,0.230565334 C2.04796159,0.267327716 1.56653518,0.808057114 1.60332054,1.43831825 C1.61892122,1.70561228 1.68955614,2.10439326 1.85329584,2.59247469 C2.1161366,3.37596021 2.54969812,4.15411666 3.19092114,4.87483642 C4.95208056,6.85433865 7.90070415,8.00676101 12.215607,8.00188342 C16.5180183,7.99701995 19.4275706,6.89553302 21.1364744,4.99846712 C21.7673136,4.29816815 22.185405,3.53980105 22.4287204,2.77537588 C22.5809301,2.29717798 22.640483,1.90503585 22.6476664,1.63938217 C22.6647319,1.0082802 22.1666373,0.482845327 21.535141,0.465790542 C20.9036447,0.448735758 20.3778815,0.946519359 20.3608161,1.57762134 C20.3609439,1.57289349 20.3583769,1.60298995 20.3493287,1.6625702 Z" id="Path-2-Copy"></path>
                    <path d="M22.4287204,21.0016946 C22.185405,20.2372694 21.7673136,19.4789023 21.1364744,18.7786034 C19.4275706,16.8815375 16.5180183,15.7800505 12.215607,15.7751871 C7.90070415,15.7703095 4.95208056,16.9227318 3.19092114,18.9022341 C2.54969812,19.6229538 2.1161366,20.4011103 1.85329584,21.1845958 C1.68955614,21.6726772 1.61892122,22.0714582 1.60332054,22.3387522 C1.56653518,22.9690134 2.04796159,23.5097428 2.67861652,23.5465052 C3.30927144,23.5832675 3.85033869,23.1021417 3.88712404,22.4718806 C3.89153905,22.3962361 3.92720561,22.1948747 4.02232326,21.9113445 C4.19091144,21.4088105 4.4738749,20.9009476 4.90054302,20.4213825 C6.19739077,18.9637558 8.51676851,18.0572641 12.2130194,18.0614424 C15.9085374,18.0656198 18.196218,18.931681 19.4362642,20.3082648 C19.8400068,20.7564622 20.1003134,21.228627 20.2486745,21.6947337 C20.2984561,21.8511326 20.3308348,21.9927219 20.3493287,22.1145003 C20.3583769,22.1740805 20.3609439,22.204177 20.3608161,22.1994492 C20.3778815,22.8305511 20.9036447,23.3283347 21.535141,23.3112799 C22.1666373,23.2942252 22.6647319,22.7687903 22.6476664,22.1376883 C22.640483,21.8720346 22.5809301,21.4798925 22.4287204,21.0016946 Z" id="Path-2-Copy-2"></path>
                </g>
                <g id="Group-2-Copy-2" transform="translate(38.970563, 16.970563) rotate(-315.000000) translate(-38.970563, -16.970563) translate(26.970563, 4.970563)">
                    <path d="M1.66360898,3.89769951 C1.78546346,3.91618189 1.92714123,3.94854042 2.08363785,3.99829087 C2.55003578,4.14655931 3.02249556,4.40670346 3.47097305,4.81019396 C4.8484169,6.04946579 5.71501921,8.33571797 5.71919925,12.0289284 C5.72338012,15.7228713 4.81632206,18.0408008 3.35778462,19.3368388 C2.87791994,19.7632405 2.36973965,20.0460273 1.86689174,20.2145102 C1.58318436,20.3095684 1.38169712,20.3452127 1.30600537,20.349625 C0.67535045,20.3863874 0.193924041,20.9271168 0.230709392,21.5573779 C0.267494744,22.187639 0.808561991,22.6687648 1.43921691,22.6320024 C1.70667795,22.6164115 2.10570809,22.5458207 2.59409448,22.3821832 C3.37806952,22.1195066 4.15671217,21.6862158 4.87788224,21.0453932 C6.85862127,19.2853334 8.01176366,16.338551 8.00688303,12.0263424 C8.00201652,7.72661761 6.89984137,4.81888208 5.00159018,3.11104533 C4.30085366,2.48060001 3.54201273,2.06276967 2.77710995,1.81960621 C2.29861327,1.66749157 1.90622612,1.6079759 1.64040647,1.60079692 C1.00891017,1.58374214 0.48314701,2.08152574 0.46608157,2.71262771 C0.44901613,3.34372969 0.947110748,3.86916456 1.57860704,3.88621935 C1.57387624,3.88609158 1.60399151,3.88865697 1.66360898,3.89769951 Z" id="Path-2"></path>
                    <path d="M21.0148165,1.81960621 C20.2499138,2.06276967 19.4910728,2.48060001 18.7903363,3.11104533 C16.8920851,4.81888208 15.78991,7.72661761 15.7850435,12.0263424 C15.7801628,16.338551 16.9333052,19.2853334 18.9140443,21.0453932 C19.6352143,21.6862158 20.413857,22.1195066 21.197832,22.3821832 C21.6862184,22.5458207 22.0852485,22.6164115 22.3527096,22.6320024 C22.9833645,22.6687648 23.5244318,22.187639 23.5612171,21.5573779 C23.5980025,20.9271168 23.116576,20.3863874 22.4859211,20.349625 C22.4102294,20.3452127 22.2087421,20.3095684 21.9250348,20.2145102 C21.4221868,20.0460273 20.9140066,19.7632405 20.4341419,19.3368388 C18.9756044,18.0408008 18.0685464,15.7228713 18.0727272,12.0289284 C18.0769073,8.33571797 18.9435096,6.04946579 20.3209534,4.81019396 C20.7694309,4.40670346 21.2418907,4.14655931 21.7082886,3.99829087 C21.8647853,3.94854042 22.006463,3.91618189 22.1283175,3.89769951 C22.187935,3.88865697 22.2180503,3.88609158 22.2133195,3.88621935 C22.8448157,3.86916456 23.3429104,3.34372969 23.3258449,2.71262771 C23.3087795,2.08152574 22.7830163,1.58374214 22.15152,1.60079692 C21.8857004,1.6079759 21.4933132,1.66749157 21.0148165,1.81960621 Z" id="Path-2-Copy-3"></path>
                    <path d="M20.3493287,1.6625702 C20.3308348,1.78434859 20.2984561,1.92593789 20.2486745,2.08233679 C20.1003134,2.5484435 19.8400068,3.02060828 19.4362642,3.46880572 C18.196218,4.84538948 15.9085374,5.71145067 12.2130194,5.7156281 C8.51676851,5.71980636 6.19739077,4.81331468 4.90054302,3.35568798 C4.4738749,2.87612293 4.19091144,2.36825995 4.02232326,1.86572603 C3.92720561,1.58219579 3.89153905,1.38083437 3.88712404,1.30518989 C3.85033869,0.674928752 3.30927144,0.193802952 2.67861652,0.230565334 C2.04796159,0.267327716 1.56653518,0.808057114 1.60332054,1.43831825 C1.61892122,1.70561228 1.68955614,2.10439326 1.85329584,2.59247469 C2.1161366,3.37596021 2.54969812,4.15411666 3.19092114,4.87483642 C4.95208056,6.85433865 7.90070415,8.00676101 12.215607,8.00188342 C16.5180183,7.99701995 19.4275706,6.89553302 21.1364744,4.99846712 C21.7673136,4.29816815 22.185405,3.53980105 22.4287204,2.77537588 C22.5809301,2.29717798 22.640483,1.90503585 22.6476664,1.63938217 C22.6647319,1.0082802 22.1666373,0.482845327 21.535141,0.465790542 C20.9036447,0.448735758 20.3778815,0.946519359 20.3608161,1.57762134 C20.3609439,1.57289349 20.3583769,1.60298995 20.3493287,1.6625702 Z" id="Path-2-Copy"></path>
                    <path d="M22.4287204,21.0016946 C22.185405,20.2372694 21.7673136,19.4789023 21.1364744,18.7786034 C19.4275706,16.8815375 16.5180183,15.7800505 12.215607,15.7751871 C7.90070415,15.7703095 4.95208056,16.9227318 3.19092114,18.9022341 C2.54969812,19.6229538 2.1161366,20.4011103 1.85329584,21.1845958 C1.68955614,21.6726772 1.61892122,22.0714582 1.60332054,22.3387522 C1.56653518,22.9690134 2.04796159,23.5097428 2.67861652,23.5465052 C3.30927144,23.5832675 3.85033869,23.1021417 3.88712404,22.4718806 C3.89153905,22.3962361 3.92720561,22.1948747 4.02232326,21.9113445 C4.19091144,21.4088105 4.4738749,20.9009476 4.90054302,20.4213825 C6.19739077,18.9637558 8.51676851,18.0572641 12.2130194,18.0614424 C15.9085374,18.0656198 18.196218,18.931681 19.4362642,20.3082648 C19.8400068,20.7564622 20.1003134,21.228627 20.2486745,21.6947337 C20.2984561,21.8511326 20.3308348,21.9927219 20.3493287,22.1145003 C20.3583769,22.1740805 20.3609439,22.204177 20.3608161,22.1994492 C20.3778815,22.8305511 20.9036447,23.3283347 21.535141,23.3112799 C22.1666373,23.2942252 22.6647319,22.7687903 22.6476664,22.1376883 C22.640483,21.8720346 22.5809301,21.4798925 22.4287204,21.0016946 Z" id="Path-2-Copy-2"></path>
                </g>
                <g id="Group-2-Copy-4" transform="translate(244.970563, 33.970563) rotate(-315.000000) translate(-244.970563, -33.970563) translate(232.970563, 21.970563)">
                    <path d="M1.66360898,3.89769951 C1.78546346,3.91618189 1.92714123,3.94854042 2.08363785,3.99829087 C2.55003578,4.14655931 3.02249556,4.40670346 3.47097305,4.81019396 C4.8484169,6.04946579 5.71501921,8.33571797 5.71919925,12.0289284 C5.72338012,15.7228713 4.81632206,18.0408008 3.35778462,19.3368388 C2.87791994,19.7632405 2.36973965,20.0460273 1.86689174,20.2145102 C1.58318436,20.3095684 1.38169712,20.3452127 1.30600537,20.349625 C0.67535045,20.3863874 0.193924041,20.9271168 0.230709392,21.5573779 C0.267494744,22.187639 0.808561991,22.6687648 1.43921691,22.6320024 C1.70667795,22.6164115 2.10570809,22.5458207 2.59409448,22.3821832 C3.37806952,22.1195066 4.15671217,21.6862158 4.87788224,21.0453932 C6.85862127,19.2853334 8.01176366,16.338551 8.00688303,12.0263424 C8.00201652,7.72661761 6.89984137,4.81888208 5.00159018,3.11104533 C4.30085366,2.48060001 3.54201273,2.06276967 2.77710995,1.81960621 C2.29861327,1.66749157 1.90622612,1.6079759 1.64040647,1.60079692 C1.00891017,1.58374214 0.48314701,2.08152574 0.46608157,2.71262771 C0.44901613,3.34372969 0.947110748,3.86916456 1.57860704,3.88621935 C1.57387624,3.88609158 1.60399151,3.88865697 1.66360898,3.89769951 Z" id="Path-2"></path>
                    <path d="M21.0148165,1.81960621 C20.2499138,2.06276967 19.4910728,2.48060001 18.7903363,3.11104533 C16.8920851,4.81888208 15.78991,7.72661761 15.7850435,12.0263424 C15.7801628,16.338551 16.9333052,19.2853334 18.9140443,21.0453932 C19.6352143,21.6862158 20.413857,22.1195066 21.197832,22.3821832 C21.6862184,22.5458207 22.0852485,22.6164115 22.3527096,22.6320024 C22.9833645,22.6687648 23.5244318,22.187639 23.5612171,21.5573779 C23.5980025,20.9271168 23.116576,20.3863874 22.4859211,20.349625 C22.4102294,20.3452127 22.2087421,20.3095684 21.9250348,20.2145102 C21.4221868,20.0460273 20.9140066,19.7632405 20.4341419,19.3368388 C18.9756044,18.0408008 18.0685464,15.7228713 18.0727272,12.0289284 C18.0769073,8.33571797 18.9435096,6.04946579 20.3209534,4.81019396 C20.7694309,4.40670346 21.2418907,4.14655931 21.7082886,3.99829087 C21.8647853,3.94854042 22.006463,3.91618189 22.1283175,3.89769951 C22.187935,3.88865697 22.2180503,3.88609158 22.2133195,3.88621935 C22.8448157,3.86916456 23.3429104,3.34372969 23.3258449,2.71262771 C23.3087795,2.08152574 22.7830163,1.58374214 22.15152,1.60079692 C21.8857004,1.6079759 21.4933132,1.66749157 21.0148165,1.81960621 Z" id="Path-2-Copy-3"></path>
                    <path d="M20.3493287,1.6625702 C20.3308348,1.78434859 20.2984561,1.92593789 20.2486745,2.08233679 C20.1003134,2.5484435 19.8400068,3.02060828 19.4362642,3.46880572 C18.196218,4.84538948 15.9085374,5.71145067 12.2130194,5.7156281 C8.51676851,5.71980636 6.19739077,4.81331468 4.90054302,3.35568798 C4.4738749,2.87612293 4.19091144,2.36825995 4.02232326,1.86572603 C3.92720561,1.58219579 3.89153905,1.38083437 3.88712404,1.30518989 C3.85033869,0.674928752 3.30927144,0.193802952 2.67861652,0.230565334 C2.04796159,0.267327716 1.56653518,0.808057114 1.60332054,1.43831825 C1.61892122,1.70561228 1.68955614,2.10439326 1.85329584,2.59247469 C2.1161366,3.37596021 2.54969812,4.15411666 3.19092114,4.87483642 C4.95208056,6.85433865 7.90070415,8.00676101 12.215607,8.00188342 C16.5180183,7.99701995 19.4275706,6.89553302 21.1364744,4.99846712 C21.7673136,4.29816815 22.185405,3.53980105 22.4287204,2.77537588 C22.5809301,2.29717798 22.640483,1.90503585 22.6476664,1.63938217 C22.6647319,1.0082802 22.1666373,0.482845327 21.535141,0.465790542 C20.9036447,0.448735758 20.3778815,0.946519359 20.3608161,1.57762134 C20.3609439,1.57289349 20.3583769,1.60298995 20.3493287,1.6625702 Z" id="Path-2-Copy"></path>
                    <path d="M22.4287204,21.0016946 C22.185405,20.2372694 21.7673136,19.4789023 21.1364744,18.7786034 C19.4275706,16.8815375 16.5180183,15.7800505 12.215607,15.7751871 C7.90070415,15.7703095 4.95208056,16.9227318 3.19092114,18.9022341 C2.54969812,19.6229538 2.1161366,20.4011103 1.85329584,21.1845958 C1.68955614,21.6726772 1.61892122,22.0714582 1.60332054,22.3387522 C1.56653518,22.9690134 2.04796159,23.5097428 2.67861652,23.5465052 C3.30927144,23.5832675 3.85033869,23.1021417 3.88712404,22.4718806 C3.89153905,22.3962361 3.92720561,22.1948747 4.02232326,21.9113445 C4.19091144,21.4088105 4.4738749,20.9009476 4.90054302,20.4213825 C6.19739077,18.9637558 8.51676851,18.0572641 12.2130194,18.0614424 C15.9085374,18.0656198 18.196218,18.931681 19.4362642,20.3082648 C19.8400068,20.7564622 20.1003134,21.228627 20.2486745,21.6947337 C20.2984561,21.8511326 20.3308348,21.9927219 20.3493287,22.1145003 C20.3583769,22.1740805 20.3609439,22.204177 20.3608161,22.1994492 C20.3778815,22.8305511 20.9036447,23.3283347 21.535141,23.3112799 C22.1666373,23.2942252 22.6647319,22.7687903 22.6476664,22.1376883 C22.640483,21.8720346 22.5809301,21.4798925 22.4287204,21.0016946 Z" id="Path-2-Copy-2"></path>
                </g>
                <g id="Group-2-Copy-5" transform="translate(16.970563, 50.970563) rotate(-315.000000) translate(-16.970563, -50.970563) translate(4.970563, 38.970563)">
                    <path d="M1.66360898,3.89769951 C1.78546346,3.91618189 1.92714123,3.94854042 2.08363785,3.99829087 C2.55003578,4.14655931 3.02249556,4.40670346 3.47097305,4.81019396 C4.8484169,6.04946579 5.71501921,8.33571797 5.71919925,12.0289284 C5.72338012,15.7228713 4.81632206,18.0408008 3.35778462,19.3368388 C2.87791994,19.7632405 2.36973965,20.0460273 1.86689174,20.2145102 C1.58318436,20.3095684 1.38169712,20.3452127 1.30600537,20.349625 C0.67535045,20.3863874 0.193924041,20.9271168 0.230709392,21.5573779 C0.267494744,22.187639 0.808561991,22.6687648 1.43921691,22.6320024 C1.70667795,22.6164115 2.10570809,22.5458207 2.59409448,22.3821832 C3.37806952,22.1195066 4.15671217,21.6862158 4.87788224,21.0453932 C6.85862127,19.2853334 8.01176366,16.338551 8.00688303,12.0263424 C8.00201652,7.72661761 6.89984137,4.81888208 5.00159018,3.11104533 C4.30085366,2.48060001 3.54201273,2.06276967 2.77710995,1.81960621 C2.29861327,1.66749157 1.90622612,1.6079759 1.64040647,1.60079692 C1.00891017,1.58374214 0.48314701,2.08152574 0.46608157,2.71262771 C0.44901613,3.34372969 0.947110748,3.86916456 1.57860704,3.88621935 C1.57387624,3.88609158 1.60399151,3.88865697 1.66360898,3.89769951 Z" id="Path-2"></path>
                    <path d="M21.0148165,1.81960621 C20.2499138,2.06276967 19.4910728,2.48060001 18.7903363,3.11104533 C16.8920851,4.81888208 15.78991,7.72661761 15.7850435,12.0263424 C15.7801628,16.338551 16.9333052,19.2853334 18.9140443,21.0453932 C19.6352143,21.6862158 20.413857,22.1195066 21.197832,22.3821832 C21.6862184,22.5458207 22.0852485,22.6164115 22.3527096,22.6320024 C22.9833645,22.6687648 23.5244318,22.187639 23.5612171,21.5573779 C23.5980025,20.9271168 23.116576,20.3863874 22.4859211,20.349625 C22.4102294,20.3452127 22.2087421,20.3095684 21.9250348,20.2145102 C21.4221868,20.0460273 20.9140066,19.7632405 20.4341419,19.3368388 C18.9756044,18.0408008 18.0685464,15.7228713 18.0727272,12.0289284 C18.0769073,8.33571797 18.9435096,6.04946579 20.3209534,4.81019396 C20.7694309,4.40670346 21.2418907,4.14655931 21.7082886,3.99829087 C21.8647853,3.94854042 22.006463,3.91618189 22.1283175,3.89769951 C22.187935,3.88865697 22.2180503,3.88609158 22.2133195,3.88621935 C22.8448157,3.86916456 23.3429104,3.34372969 23.3258449,2.71262771 C23.3087795,2.08152574 22.7830163,1.58374214 22.15152,1.60079692 C21.8857004,1.6079759 21.4933132,1.66749157 21.0148165,1.81960621 Z" id="Path-2-Copy-3"></path>
                    <path d="M20.3493287,1.6625702 C20.3308348,1.78434859 20.2984561,1.92593789 20.2486745,2.08233679 C20.1003134,2.5484435 19.8400068,3.02060828 19.4362642,3.46880572 C18.196218,4.84538948 15.9085374,5.71145067 12.2130194,5.7156281 C8.51676851,5.71980636 6.19739077,4.81331468 4.90054302,3.35568798 C4.4738749,2.87612293 4.19091144,2.36825995 4.02232326,1.86572603 C3.92720561,1.58219579 3.89153905,1.38083437 3.88712404,1.30518989 C3.85033869,0.674928752 3.30927144,0.193802952 2.67861652,0.230565334 C2.04796159,0.267327716 1.56653518,0.808057114 1.60332054,1.43831825 C1.61892122,1.70561228 1.68955614,2.10439326 1.85329584,2.59247469 C2.1161366,3.37596021 2.54969812,4.15411666 3.19092114,4.87483642 C4.95208056,6.85433865 7.90070415,8.00676101 12.215607,8.00188342 C16.5180183,7.99701995 19.4275706,6.89553302 21.1364744,4.99846712 C21.7673136,4.29816815 22.185405,3.53980105 22.4287204,2.77537588 C22.5809301,2.29717798 22.640483,1.90503585 22.6476664,1.63938217 C22.6647319,1.0082802 22.1666373,0.482845327 21.535141,0.465790542 C20.9036447,0.448735758 20.3778815,0.946519359 20.3608161,1.57762134 C20.3609439,1.57289349 20.3583769,1.60298995 20.3493287,1.6625702 Z" id="Path-2-Copy"></path>
                    <path d="M22.4287204,21.0016946 C22.185405,20.2372694 21.7673136,19.4789023 21.1364744,18.7786034 C19.4275706,16.8815375 16.5180183,15.7800505 12.215607,15.7751871 C7.90070415,15.7703095 4.95208056,16.9227318 3.19092114,18.9022341 C2.54969812,19.6229538 2.1161366,20.4011103 1.85329584,21.1845958 C1.68955614,21.6726772 1.61892122,22.0714582 1.60332054,22.3387522 C1.56653518,22.9690134 2.04796159,23.5097428 2.67861652,23.5465052 C3.30927144,23.5832675 3.85033869,23.1021417 3.88712404,22.4718806 C3.89153905,22.3962361 3.92720561,22.1948747 4.02232326,21.9113445 C4.19091144,21.4088105 4.4738749,20.9009476 4.90054302,20.4213825 C6.19739077,18.9637558 8.51676851,18.0572641 12.2130194,18.0614424 C15.9085374,18.0656198 18.196218,18.931681 19.4362642,20.3082648 C19.8400068,20.7564622 20.1003134,21.228627 20.2486745,21.6947337 C20.2984561,21.8511326 20.3308348,21.9927219 20.3493287,22.1145003 C20.3583769,22.1740805 20.3609439,22.204177 20.3608161,22.1994492 C20.3778815,22.8305511 20.9036447,23.3283347 21.535141,23.3112799 C22.1666373,23.2942252 22.6647319,22.7687903 22.6476664,22.1376883 C22.640483,21.8720346 22.5809301,21.4798925 22.4287204,21.0016946 Z" id="Path-2-Copy-2"></path>
                </g>
            </g>
            <g id="Group-2-Copy-7" transform="translate(169.000000, 361.000000)">
                <rect id="Rectangle-2" fill="#FFEEEE" x="0" y="0" width="217" height="86" rx="43"></rect>
                <text id="Friends" font-family="Montserrat-Bold, Montserrat" font-size="48" font-weight="bold" letter-spacing="-1.60000026" fill="#6C4A4A">
                    <tspan x="23.4080009" y="59">Friends</tspan>
                </text>
            </g>
            <circle id="Oval-11" fill="#FFEEEE" cx="127" cy="404" r="10"></circle>
            <circle id="Oval-11-Copy" fill="#FFEEEE" cx="434.5" cy="404.5" r="18.5"></circle>
        </g>
    </g>
</svg>