<?xml version="1.0" encoding="UTF-8"?>
<svg width="728px" height="696px" viewBox="0 0 728 696" version="1.1" xmlns="http://www.w3.org/2000/svg" xmlns:xlink="http://www.w3.org/1999/xlink">
    <!-- Generator: Sketch 40.2 (33826) - http://www.bohemiancoding.com/sketch -->
    <title>recruit</title>
    <desc>Created with Sketch.</desc>
    <defs></defs>
    <g id="Page-1" stroke="none" stroke-width="1" fill="none" fill-rule="evenodd">
        <g id="recruit" transform="translate(0.000000, -1.000000)">
            <ellipse id="Oval-2-Copy-2" fill="#CBBFBF" opacity="0.245527627" cx="364" cy="614" rx="364" ry="83"></ellipse>
            <g id="Group" transform="translate(41.000000, 209.000000)">
                <path d="M3,249 L59,206 L127,190 L134,88 L170,6 L237,0 L291,14 C291,14 344,19 348,19 C352,19 407,6 413,6 L479,6 C484,6 511,36 511,36 C511,36 545,196 545,196 L640,236 L652,277 L621,315 L419,351 L118,337 L18,298 L3,249 Z" id="Path-8" fill="#BFAEAE"></path>
                <path d="M107,247 L119,181 C119,181 222,218 318,218 C414,218 536,190 536,190 L541,255 C541,255 429.506519,297.944821 324,296 C218.493481,294.055179 107,247 107,247 Z" id="Path-9" fill="#FFEEEE"></path>
                <path d="M107.905537,252.727133 C107.905537,252.727133 142.148005,42.1399917 156.786696,19.4244791 C171.425387,-3.29103355 243.216765,-3.80754147 284.231118,11.3445615 C325.24547,26.4966644 355.596091,20.4827785 408.65457,8.86315631 C461.71305,-2.75646591 501.148259,-2.83231672 513.279112,51.8669555 C525.409965,106.566228 545.472669,250.205997 545.472669,250.205997" id="Path-5" stroke="#6C4B4B" stroke-width="30" stroke-linecap="round" stroke-linejoin="round"></path>
                <path d="M125,183 C125,183 240,217 321,217 C402,217 455,204 531.378156,184.589255" id="Path-6" stroke="#6C4B4B" stroke-width="30"></path>
                <path d="M109,254 C109,254 314.654462,353 544,254" id="Path-4" stroke="#6C4B4B" stroke-width="30" stroke-linecap="round" stroke-linejoin="round"></path>
                <path d="M536.83313,349.750737 C610.784213,331.125021 654,302.939599 654,273.165644 C654,221.250877 522.613371,188.165644 326,188.165644 C129.386629,188.165644 0,221.250877 0,273.165644 C0,303.613134 44.5051828,332.399408 120.975708,351" id="Oval-5" stroke="#6C4B4B" stroke-width="30" transform="translate(327.000000, 269.582822) scale(1, -1) translate(-327.000000, -269.582822) "></path>
            </g>
            <g id="Group-3" transform="translate(280.614399, 442.820282) rotate(4.000000) translate(-280.614399, -442.820282) translate(208.614399, 359.820282)">
                <path d="M10,48.9192845 C10.0018461,48.9543222 10.0018461,48.9875159 10.0018461,49.0243978 C10.1735321,109.394488 55.7238586,157.501357 73.5496653,157.501357 C91.3717797,157.501357 136.923952,109.394488 137.101177,49.0114891 L137.101177,48.9487899 C137.091946,48.8676498 137.082716,48.7883538 137.08087,48.7072137 C137.003334,47.3259876 136.268592,46.0756922 135.100019,45.3269902 C131.754911,44.2647923 115.913647,39.0644485 105.265423,32.4828786 C94.4085912,25.768534 78.4916375,11.122743 75.8535806,8.67563087 C75.7852754,8.638749 75.7132781,8.60186713 75.6431268,8.56682936 C75.3163696,8.38979637 75.0339184,8.2680862 74.7791585,8.20538702 C74.638856,8.16850515 74.5022456,8.126091 74.3674814,8.07261228 C73.9927259,8.00069264 73.3687488,7.92692889 72.4770893,8.14453193 C72.0691043,8.2680862 71.7792688,8.38979637 71.4635881,8.56314117 C71.3860524,8.60186713 71.3159012,8.64243719 71.2402116,8.67747497 C68.3012427,11.4012011 52.4027499,25.9492552 41.9446725,32.4128031 C31.4441352,38.9077006 15.3850329,44.2352868 12.0140799,45.3177697 C10.8344309,46.0738481 10.0959965,47.3222994 10.0166148,48.7109019 C10.0166148,48.7791333 10.0092304,48.851053 10,48.9192845 Z" id="Combined-Shape" fill="#E3966B"></path>
                <path d="M71.7924393,166 C47.6733255,166 0.284297248,113.279209 0.0110765161,49.4993899 C0.00553825807,49.403497 0,49.3076041 0,49.2135554 C0,49.0641838 0.0110765161,48.8853067 0.0258452043,48.7359351 C0.0258452043,48.555214 0.0369217205,48.3800251 0.0590747527,48.201148 C0.383985893,44.2418792 2.54390654,40.7067518 5.92224396,38.5989529 C6.3006916,38.305742 6.72713747,38.0807626 7.19419723,37.9350792 C7.37326758,37.8797564 25.2138429,32.2774002 35.8546827,25.690298 C46.6062877,19.0441849 64.037032,2.77927975 64.2105641,2.61699952 C64.3748657,2.46209566 64.5539361,2.32010045 64.7403907,2.19654619 L65.5489764,1.69679683 C65.8018902,1.54004888 66.0621883,1.41649461 66.3298708,1.32244584 C67.0498444,0.968379881 67.7550492,0.704674503 68.4768689,0.514732867 C71.2607666,-0.202619524 72.6047172,-0.110414847 74.8163283,0.424372283 C74.9307856,0.452033686 75.1227785,0.512888774 75.2889263,0.56821158 C75.9572094,0.752620935 76.6218004,1.01079403 77.299314,1.33904268 C77.5429973,1.43124736 77.7811424,1.54189298 78.0119032,1.68019999 L78.565729,2.01766911 L78.5564985,2.03242186 C78.8721792,2.20576665 79.1601687,2.41599332 79.4167746,2.65572548 C81.2333233,4.34307108 97.451189,19.3300194 107.840961,25.7566854 C118.64241,32.43046 136.196842,37.87238 136.374067,37.9240147 C136.857741,38.0733862 137.302648,38.305742 137.694018,38.6100175 C140.963437,40.6680259 143.09382,44.0648462 143.49442,47.8876521 C143.555341,48.1642661 143.586725,48.4537888 143.586725,48.7469997 C143.595955,48.8428926 143.586725,49.1121302 143.586725,49.2080231 C143.586725,49.2873191 143.583033,49.3776797 143.581187,49.4698844 C143.304274,113.266301 95.9115532,166 71.7924393,166 L71.7924393,166 Z M8.24092801,49.1932703 C8.24277409,49.2283081 8.24277409,49.2615018 8.24277409,49.2983837 C8.41446009,109.668474 53.9647866,157.775343 71.7905933,157.775343 C89.6127077,157.775343 135.16488,109.668474 135.342105,49.285475 L135.342105,49.2227758 C135.332874,49.1416357 135.323644,49.0623397 135.321798,48.9811996 C135.244262,47.5999735 134.50952,46.3496781 133.340947,45.6009761 C129.995839,44.5387782 114.154575,39.3384344 103.506351,32.7568645 C92.6495192,26.0425199 76.7325655,11.3967289 74.0945086,8.94961677 C74.0262034,8.9127349 73.9542061,8.87585303 73.8840548,8.84081525 C73.5572976,8.66378227 73.2748464,8.5420721 73.0200866,8.47937292 C72.879784,8.44249105 72.7431737,8.40007689 72.6084094,8.34659818 C72.2336539,8.27467853 71.6096768,8.20091479 70.7180173,8.41851783 C70.3100323,8.5420721 70.0201968,8.66378227 69.7045161,8.83712707 C69.6269804,8.87585303 69.5568292,8.91642309 69.4811396,8.95146087 C66.5421707,11.675187 50.6436779,26.2232411 40.1856005,32.686789 C29.6850633,39.1816865 13.6259609,44.5092727 10.2550079,45.5917556 C9.07535889,46.347834 8.33692448,47.5962853 8.25754278,48.9848878 C8.25754278,49.0531192 8.25015844,49.1250389 8.24092801,49.1932703 L8.24092801,49.1932703 Z" id="Shape" stroke="#6C4B4B" stroke-width="15" stroke-linecap="round" stroke-linejoin="round"></path>
                <path d="M75.1304348,131.025157 C75.1304348,131.025157 100.695652,117.45283 113.73913,63.6855346" id="Path-10" stroke="#FFFFFF" stroke-width="13" stroke-linecap="round" stroke-linejoin="round"></path>
            </g>
            <g id="Group-3-Copy-3" transform="translate(297.000000, 0.000000)" fill="#BFAEAE">
                <g id="Group-2-Copy" transform="translate(325.970563, 359.970563) rotate(-315.000000) translate(-325.970563, -359.970563) translate(313.970563, 347.970563)">
                    <path d="M1.66360898,3.89769951 C1.78546346,3.91618189 1.92714123,3.94854042 2.08363785,3.99829087 C2.55003578,4.14655931 3.02249556,4.40670346 3.47097305,4.81019396 C4.8484169,6.04946579 5.71501921,8.33571797 5.71919925,12.0289284 C5.72338012,15.7228713 4.81632206,18.0408008 3.35778462,19.3368388 C2.87791994,19.7632405 2.36973965,20.0460273 1.86689174,20.2145102 C1.58318436,20.3095684 1.38169712,20.3452127 1.30600537,20.349625 C0.67535045,20.3863874 0.193924041,20.9271168 0.230709392,21.5573779 C0.267494744,22.187639 0.808561991,22.6687648 1.43921691,22.6320024 C1.70667795,22.6164115 2.10570809,22.5458207 2.59409448,22.3821832 C3.37806952,22.1195066 4.15671217,21.6862158 4.87788224,21.0453932 C6.85862127,19.2853334 8.01176366,16.338551 8.00688303,12.0263424 C8.00201652,7.72661761 6.89984137,4.81888208 5.00159018,3.11104533 C4.30085366,2.48060001 3.54201273,2.06276967 2.77710995,1.81960621 C2.29861327,1.66749157 1.90622612,1.6079759 1.64040647,1.60079692 C1.00891017,1.58374214 0.48314701,2.08152574 0.46608157,2.71262771 C0.44901613,3.34372969 0.947110748,3.86916456 1.57860704,3.88621935 C1.57387624,3.88609158 1.60399151,3.88865697 1.66360898,3.89769951 Z" id="Path-2"></path>
                    <path d="M21.0148165,1.81960621 C20.2499138,2.06276967 19.4910728,2.48060001 18.7903363,3.11104533 C16.8920851,4.81888208 15.78991,7.72661761 15.7850435,12.0263424 C15.7801628,16.338551 16.9333052,19.2853334 18.9140443,21.0453932 C19.6352143,21.6862158 20.413857,22.1195066 21.197832,22.3821832 C21.6862184,22.5458207 22.0852485,22.6164115 22.3527096,22.6320024 C22.9833645,22.6687648 23.5244318,22.187639 23.5612171,21.5573779 C23.5980025,20.9271168 23.116576,20.3863874 22.4859211,20.349625 C22.4102294,20.3452127 22.2087421,20.3095684 21.9250348,20.2145102 C21.4221868,20.0460273 20.9140066,19.7632405 20.4341419,19.3368388 C18.9756044,18.0408008 18.0685464,15.7228713 18.0727272,12.0289284 C18.0769073,8.33571797 18.9435096,6.04946579 20.3209534,4.81019396 C20.7694309,4.40670346 21.2418907,4.14655931 21.7082886,3.99829087 C21.8647853,3.94854042 22.006463,3.91618189 22.1283175,3.89769951 C22.187935,3.88865697 22.2180503,3.88609158 22.2133195,3.88621935 C22.8448157,3.86916456 23.3429104,3.34372969 23.3258449,2.71262771 C23.3087795,2.08152574 22.7830163,1.58374214 22.15152,1.60079692 C21.8857004,1.6079759 21.4933132,1.66749157 21.0148165,1.81960621 Z" id="Path-2-Copy-3"></path>
                    <path d="M20.3493287,1.6625702 C20.3308348,1.78434859 20.2984561,1.92593789 20.2486745,2.08233679 C20.1003134,2.5484435 19.8400068,3.02060828 19.4362642,3.46880572 C18.196218,4.84538948 15.9085374,5.71145067 12.2130194,5.7156281 C8.51676851,5.71980636 6.19739077,4.81331468 4.90054302,3.35568798 C4.4738749,2.87612293 4.19091144,2.36825995 4.02232326,1.86572603 C3.92720561,1.58219579 3.89153905,1.38083437 3.88712404,1.30518989 C3.85033869,0.674928752 3.30927144,0.193802952 2.67861652,0.230565334 C2.04796159,0.267327716 1.56653518,0.808057114 1.60332054,1.43831825 C1.61892122,1.70561228 1.68955614,2.10439326 1.85329584,2.59247469 C2.1161366,3.37596021 2.54969812,4.15411666 3.19092114,4.87483642 C4.95208056,6.85433865 7.90070415,8.00676101 12.215607,8.00188342 C16.5180183,7.99701995 19.4275706,6.89553302 21.1364744,4.99846712 C21.7673136,4.29816815 22.185405,3.53980105 22.4287204,2.77537588 C22.5809301,2.29717798 22.640483,1.90503585 22.6476664,1.63938217 C22.6647319,1.0082802 22.1666373,0.482845327 21.535141,0.465790542 C20.9036447,0.448735758 20.3778815,0.946519359 20.3608161,1.57762134 C20.3609439,1.57289349 20.3583769,1.60298995 20.3493287,1.6625702 Z" id="Path-2-Copy"></path>
                    <path d="M22.4287204,21.0016946 C22.185405,20.2372694 21.7673136,19.4789023 21.1364744,18.7786034 C19.4275706,16.8815375 16.5180183,15.7800505 12.215607,15.7751871 C7.90070415,15.7703095 4.95208056,16.9227318 3.19092114,18.9022341 C2.54969812,19.6229538 2.1161366,20.4011103 1.85329584,21.1845958 C1.68955614,21.6726772 1.61892122,22.0714582 1.60332054,22.3387522 C1.56653518,22.9690134 2.04796159,23.5097428 2.67861652,23.5465052 C3.30927144,23.5832675 3.85033869,23.1021417 3.88712404,22.4718806 C3.89153905,22.3962361 3.92720561,22.1948747 4.02232326,21.9113445 C4.19091144,21.4088105 4.4738749,20.9009476 4.90054302,20.4213825 C6.19739077,18.9637558 8.51676851,18.0572641 12.2130194,18.0614424 C15.9085374,18.0656198 18.196218,18.931681 19.4362642,20.3082648 C19.8400068,20.7564622 20.1003134,21.228627 20.2486745,21.6947337 C20.2984561,21.8511326 20.3308348,21.9927219 20.3493287,22.1145003 C20.3583769,22.1740805 20.3609439,22.204177 20.3608161,22.1994492 C20.3778815,22.8305511 20.9036447,23.3283347 21.535141,23.3112799 C22.1666373,23.2942252 22.6647319,22.7687903 22.6476664,22.1376883 C22.640483,21.8720346 22.5809301,21.4798925 22.4287204,21.0016946 Z" id="Path-2-Copy-2"></path>
                </g>
                <g id="Group-2-Copy-2" transform="translate(32.970563, 149.970563) rotate(-315.000000) translate(-32.970563, -149.970563) translate(20.970563, 137.970563)">
                    <path d="M1.66360898,3.89769951 C1.78546346,3.91618189 1.92714123,3.94854042 2.08363785,3.99829087 C2.55003578,4.14655931 3.02249556,4.40670346 3.47097305,4.81019396 C4.8484169,6.04946579 5.71501921,8.33571797 5.71919925,12.0289284 C5.72338012,15.7228713 4.81632206,18.0408008 3.35778462,19.3368388 C2.87791994,19.7632405 2.36973965,20.0460273 1.86689174,20.2145102 C1.58318436,20.3095684 1.38169712,20.3452127 1.30600537,20.349625 C0.67535045,20.3863874 0.193924041,20.9271168 0.230709392,21.5573779 C0.267494744,22.187639 0.808561991,22.6687648 1.43921691,22.6320024 C1.70667795,22.6164115 2.10570809,22.5458207 2.59409448,22.3821832 C3.37806952,22.1195066 4.15671217,21.6862158 4.87788224,21.0453932 C6.85862127,19.2853334 8.01176366,16.338551 8.00688303,12.0263424 C8.00201652,7.72661761 6.89984137,4.81888208 5.00159018,3.11104533 C4.30085366,2.48060001 3.54201273,2.06276967 2.77710995,1.81960621 C2.29861327,1.66749157 1.90622612,1.6079759 1.64040647,1.60079692 C1.00891017,1.58374214 0.48314701,2.08152574 0.46608157,2.71262771 C0.44901613,3.34372969 0.947110748,3.86916456 1.57860704,3.88621935 C1.57387624,3.88609158 1.60399151,3.88865697 1.66360898,3.89769951 Z" id="Path-2"></path>
                    <path d="M21.0148165,1.81960621 C20.2499138,2.06276967 19.4910728,2.48060001 18.7903363,3.11104533 C16.8920851,4.81888208 15.78991,7.72661761 15.7850435,12.0263424 C15.7801628,16.338551 16.9333052,19.2853334 18.9140443,21.0453932 C19.6352143,21.6862158 20.413857,22.1195066 21.197832,22.3821832 C21.6862184,22.5458207 22.0852485,22.6164115 22.3527096,22.6320024 C22.9833645,22.6687648 23.5244318,22.187639 23.5612171,21.5573779 C23.5980025,20.9271168 23.116576,20.3863874 22.4859211,20.349625 C22.4102294,20.3452127 22.2087421,20.3095684 21.9250348,20.2145102 C21.4221868,20.0460273 20.9140066,19.7632405 20.4341419,19.3368388 C18.9756044,18.0408008 18.0685464,15.7228713 18.0727272,12.0289284 C18.0769073,8.33571797 18.9435096,6.04946579 20.3209534,4.81019396 C20.7694309,4.40670346 21.2418907,4.14655931 21.7082886,3.99829087 C21.8647853,3.94854042 22.006463,3.91618189 22.1283175,3.89769951 C22.187935,3.88865697 22.2180503,3.88609158 22.2133195,3.88621935 C22.8448157,3.86916456 23.3429104,3.34372969 23.3258449,2.71262771 C23.3087795,2.08152574 22.7830163,1.58374214 22.15152,1.60079692 C21.8857004,1.6079759 21.4933132,1.66749157 21.0148165,1.81960621 Z" id="Path-2-Copy-3"></path>
                    <path d="M20.3493287,1.6625702 C20.3308348,1.78434859 20.2984561,1.92593789 20.2486745,2.08233679 C20.1003134,2.5484435 19.8400068,3.02060828 19.4362642,3.46880572 C18.196218,4.84538948 15.9085374,5.71145067 12.2130194,5.7156281 C8.51676851,5.71980636 6.19739077,4.81331468 4.90054302,3.35568798 C4.4738749,2.87612293 4.19091144,2.36825995 4.02232326,1.86572603 C3.92720561,1.58219579 3.89153905,1.38083437 3.88712404,1.30518989 C3.85033869,0.674928752 3.30927144,0.193802952 2.67861652,0.230565334 C2.04796159,0.267327716 1.56653518,0.808057114 1.60332054,1.43831825 C1.61892122,1.70561228 1.68955614,2.10439326 1.85329584,2.59247469 C2.1161366,3.37596021 2.54969812,4.15411666 3.19092114,4.87483642 C4.95208056,6.85433865 7.90070415,8.00676101 12.215607,8.00188342 C16.5180183,7.99701995 19.4275706,6.89553302 21.1364744,4.99846712 C21.7673136,4.29816815 22.185405,3.53980105 22.4287204,2.77537588 C22.5809301,2.29717798 22.640483,1.90503585 22.6476664,1.63938217 C22.6647319,1.0082802 22.1666373,0.482845327 21.535141,0.465790542 C20.9036447,0.448735758 20.3778815,0.946519359 20.3608161,1.57762134 C20.3609439,1.57289349 20.3583769,1.60298995 20.3493287,1.6625702 Z" id="Path-2-Copy"></path>
                    <path d="M22.4287204,21.0016946 C22.185405,20.2372694 21.7673136,19.4789023 21.1364744,18.7786034 C19.4275706,16.8815375 16.5180183,15.7800505 12.215607,15.7751871 C7.90070415,15.7703095 4.95208056,16.9227318 3.19092114,18.9022341 C2.54969812,19.6229538 2.1161366,20.4011103 1.85329584,21.1845958 C1.68955614,21.6726772 1.61892122,22.0714582 1.60332054,22.3387522 C1.56653518,22.9690134 2.04796159,23.5097428 2.67861652,23.5465052 C3.30927144,23.5832675 3.85033869,23.1021417 3.88712404,22.4718806 C3.89153905,22.3962361 3.92720561,22.1948747 4.02232326,21.9113445 C4.19091144,21.4088105 4.4738749,20.9009476 4.90054302,20.4213825 C6.19739077,18.9637558 8.51676851,18.0572641 12.2130194,18.0614424 C15.9085374,18.0656198 18.196218,18.931681 19.4362642,20.3082648 C19.8400068,20.7564622 20.1003134,21.228627 20.2486745,21.6947337 C20.2984561,21.8511326 20.3308348,21.9927219 20.3493287,22.1145003 C20.3583769,22.1740805 20.3609439,22.204177 20.3608161,22.1994492 C20.3778815,22.8305511 20.9036447,23.3283347 21.535141,23.3112799 C22.1666373,23.2942252 22.6647319,22.7687903 22.6476664,22.1376883 C22.640483,21.8720346 22.5809301,21.4798925 22.4287204,21.0016946 Z" id="Path-2-Copy-2"></path>
                </g>
                <g id="Group-2-Copy-4" transform="translate(361.970563, 50.970563) rotate(-315.000000) translate(-361.970563, -50.970563) translate(349.970563, 38.970563)">
                    <path d="M1.66360898,3.89769951 C1.78546346,3.91618189 1.92714123,3.94854042 2.08363785,3.99829087 C2.55003578,4.14655931 3.02249556,4.40670346 3.47097305,4.81019396 C4.8484169,6.04946579 5.71501921,8.33571797 5.71919925,12.0289284 C5.72338012,15.7228713 4.81632206,18.0408008 3.35778462,19.3368388 C2.87791994,19.7632405 2.36973965,20.0460273 1.86689174,20.2145102 C1.58318436,20.3095684 1.38169712,20.3452127 1.30600537,20.349625 C0.67535045,20.3863874 0.193924041,20.9271168 0.230709392,21.5573779 C0.267494744,22.187639 0.808561991,22.6687648 1.43921691,22.6320024 C1.70667795,22.6164115 2.10570809,22.5458207 2.59409448,22.3821832 C3.37806952,22.1195066 4.15671217,21.6862158 4.87788224,21.0453932 C6.85862127,19.2853334 8.01176366,16.338551 8.00688303,12.0263424 C8.00201652,7.72661761 6.89984137,4.81888208 5.00159018,3.11104533 C4.30085366,2.48060001 3.54201273,2.06276967 2.77710995,1.81960621 C2.29861327,1.66749157 1.90622612,1.6079759 1.64040647,1.60079692 C1.00891017,1.58374214 0.48314701,2.08152574 0.46608157,2.71262771 C0.44901613,3.34372969 0.947110748,3.86916456 1.57860704,3.88621935 C1.57387624,3.88609158 1.60399151,3.88865697 1.66360898,3.89769951 Z" id="Path-2"></path>
                    <path d="M21.0148165,1.81960621 C20.2499138,2.06276967 19.4910728,2.48060001 18.7903363,3.11104533 C16.8920851,4.81888208 15.78991,7.72661761 15.7850435,12.0263424 C15.7801628,16.338551 16.9333052,19.2853334 18.9140443,21.0453932 C19.6352143,21.6862158 20.413857,22.1195066 21.197832,22.3821832 C21.6862184,22.5458207 22.0852485,22.6164115 22.3527096,22.6320024 C22.9833645,22.6687648 23.5244318,22.187639 23.5612171,21.5573779 C23.5980025,20.9271168 23.116576,20.3863874 22.4859211,20.349625 C22.4102294,20.3452127 22.2087421,20.3095684 21.9250348,20.2145102 C21.4221868,20.0460273 20.9140066,19.7632405 20.4341419,19.3368388 C18.9756044,18.0408008 18.0685464,15.7228713 18.0727272,12.0289284 C18.0769073,8.33571797 18.9435096,6.04946579 20.3209534,4.81019396 C20.7694309,4.40670346 21.2418907,4.14655931 21.7082886,3.99829087 C21.8647853,3.94854042 22.006463,3.91618189 22.1283175,3.89769951 C22.187935,3.88865697 22.2180503,3.88609158 22.2133195,3.88621935 C22.8448157,3.86916456 23.3429104,3.34372969 23.3258449,2.71262771 C23.3087795,2.08152574 22.7830163,1.58374214 22.15152,1.60079692 C21.8857004,1.6079759 21.4933132,1.66749157 21.0148165,1.81960621 Z" id="Path-2-Copy-3"></path>
                    <path d="M20.3493287,1.6625702 C20.3308348,1.78434859 20.2984561,1.92593789 20.2486745,2.08233679 C20.1003134,2.5484435 19.8400068,3.02060828 19.4362642,3.46880572 C18.196218,4.84538948 15.9085374,5.71145067 12.2130194,5.7156281 C8.51676851,5.71980636 6.19739077,4.81331468 4.90054302,3.35568798 C4.4738749,2.87612293 4.19091144,2.36825995 4.02232326,1.86572603 C3.92720561,1.58219579 3.89153905,1.38083437 3.88712404,1.30518989 C3.85033869,0.674928752 3.30927144,0.193802952 2.67861652,0.230565334 C2.04796159,0.267327716 1.56653518,0.808057114 1.60332054,1.43831825 C1.61892122,1.70561228 1.68955614,2.10439326 1.85329584,2.59247469 C2.1161366,3.37596021 2.54969812,4.15411666 3.19092114,4.87483642 C4.95208056,6.85433865 7.90070415,8.00676101 12.215607,8.00188342 C16.5180183,7.99701995 19.4275706,6.89553302 21.1364744,4.99846712 C21.7673136,4.29816815 22.185405,3.53980105 22.4287204,2.77537588 C22.5809301,2.29717798 22.640483,1.90503585 22.6476664,1.63938217 C22.6647319,1.0082802 22.1666373,0.482845327 21.535141,0.465790542 C20.9036447,0.448735758 20.3778815,0.946519359 20.3608161,1.57762134 C20.3609439,1.57289349 20.3583769,1.60298995 20.3493287,1.6625702 Z" id="Path-2-Copy"></path>
                    <path d="M22.4287204,21.0016946 C22.185405,20.2372694 21.7673136,19.4789023 21.1364744,18.7786034 C19.4275706,16.8815375 16.5180183,15.7800505 12.215607,15.7751871 C7.90070415,15.7703095 4.95208056,16.9227318 3.19092114,18.9022341 C2.54969812,19.6229538 2.1161366,20.4011103 1.85329584,21.1845958 C1.68955614,21.6726772 1.61892122,22.0714582 1.60332054,22.3387522 C1.56653518,22.9690134 2.04796159,23.5097428 2.67861652,23.5465052 C3.30927144,23.5832675 3.85033869,23.1021417 3.88712404,22.4718806 C3.89153905,22.3962361 3.92720561,22.1948747 4.02232326,21.9113445 C4.19091144,21.4088105 4.4738749,20.9009476 4.90054302,20.4213825 C6.19739077,18.9637558 8.51676851,18.0572641 12.2130194,18.0614424 C15.9085374,18.0656198 18.196218,18.931681 19.4362642,20.3082648 C19.8400068,20.7564622 20.1003134,21.228627 20.2486745,21.6947337 C20.2984561,21.8511326 20.3308348,21.9927219 20.3493287,22.1145003 C20.3583769,22.1740805 20.3609439,22.204177 20.3608161,22.1994492 C20.3778815,22.8305511 20.9036447,23.3283347 21.535141,23.3112799 C22.1666373,23.2942252 22.6647319,22.7687903 22.6476664,22.1376883 C22.640483,21.8720346 22.5809301,21.4798925 22.4287204,21.0016946 Z" id="Path-2-Copy-2"></path>
                </g>
                <g id="Group-2-Copy-5" transform="translate(16.970563, 16.970563) rotate(-315.000000) translate(-16.970563, -16.970563) translate(4.970563, 4.970563)">
                    <path d="M1.66360898,3.89769951 C1.78546346,3.91618189 1.92714123,3.94854042 2.08363785,3.99829087 C2.55003578,4.14655931 3.02249556,4.40670346 3.47097305,4.81019396 C4.8484169,6.04946579 5.71501921,8.33571797 5.71919925,12.0289284 C5.72338012,15.7228713 4.81632206,18.0408008 3.35778462,19.3368388 C2.87791994,19.7632405 2.36973965,20.0460273 1.86689174,20.2145102 C1.58318436,20.3095684 1.38169712,20.3452127 1.30600537,20.349625 C0.67535045,20.3863874 0.193924041,20.9271168 0.230709392,21.5573779 C0.267494744,22.187639 0.808561991,22.6687648 1.43921691,22.6320024 C1.70667795,22.6164115 2.10570809,22.5458207 2.59409448,22.3821832 C3.37806952,22.1195066 4.15671217,21.6862158 4.87788224,21.0453932 C6.85862127,19.2853334 8.01176366,16.338551 8.00688303,12.0263424 C8.00201652,7.72661761 6.89984137,4.81888208 5.00159018,3.11104533 C4.30085366,2.48060001 3.54201273,2.06276967 2.77710995,1.81960621 C2.29861327,1.66749157 1.90622612,1.6079759 1.64040647,1.60079692 C1.00891017,1.58374214 0.48314701,2.08152574 0.46608157,2.71262771 C0.44901613,3.34372969 0.947110748,3.86916456 1.57860704,3.88621935 C1.57387624,3.88609158 1.60399151,3.88865697 1.66360898,3.89769951 Z" id="Path-2"></path>
                    <path d="M21.0148165,1.81960621 C20.2499138,2.06276967 19.4910728,2.48060001 18.7903363,3.11104533 C16.8920851,4.81888208 15.78991,7.72661761 15.7850435,12.0263424 C15.7801628,16.338551 16.9333052,19.2853334 18.9140443,21.0453932 C19.6352143,21.6862158 20.413857,22.1195066 21.197832,22.3821832 C21.6862184,22.5458207 22.0852485,22.6164115 22.3527096,22.6320024 C22.9833645,22.6687648 23.5244318,22.187639 23.5612171,21.5573779 C23.5980025,20.9271168 23.116576,20.3863874 22.4859211,20.349625 C22.4102294,20.3452127 22.2087421,20.3095684 21.9250348,20.2145102 C21.4221868,20.0460273 20.9140066,19.7632405 20.4341419,19.3368388 C18.9756044,18.0408008 18.0685464,15.7228713 18.0727272,12.0289284 C18.0769073,8.33571797 18.9435096,6.04946579 20.3209534,4.81019396 C20.7694309,4.40670346 21.2418907,4.14655931 21.7082886,3.99829087 C21.8647853,3.94854042 22.006463,3.91618189 22.1283175,3.89769951 C22.187935,3.88865697 22.2180503,3.88609158 22.2133195,3.88621935 C22.8448157,3.86916456 23.3429104,3.34372969 23.3258449,2.71262771 C23.3087795,2.08152574 22.7830163,1.58374214 22.15152,1.60079692 C21.8857004,1.6079759 21.4933132,1.66749157 21.0148165,1.81960621 Z" id="Path-2-Copy-3"></path>
                    <path d="M20.3493287,1.6625702 C20.3308348,1.78434859 20.2984561,1.92593789 20.2486745,2.08233679 C20.1003134,2.5484435 19.8400068,3.02060828 19.4362642,3.46880572 C18.196218,4.84538948 15.9085374,5.71145067 12.2130194,5.7156281 C8.51676851,5.71980636 6.19739077,4.81331468 4.90054302,3.35568798 C4.4738749,2.87612293 4.19091144,2.36825995 4.02232326,1.86572603 C3.92720561,1.58219579 3.89153905,1.38083437 3.88712404,1.30518989 C3.85033869,0.674928752 3.30927144,0.193802952 2.67861652,0.230565334 C2.04796159,0.267327716 1.56653518,0.808057114 1.60332054,1.43831825 C1.61892122,1.70561228 1.68955614,2.10439326 1.85329584,2.59247469 C2.1161366,3.37596021 2.54969812,4.15411666 3.19092114,4.87483642 C4.95208056,6.85433865 7.90070415,8.00676101 12.215607,8.00188342 C16.5180183,7.99701995 19.4275706,6.89553302 21.1364744,4.99846712 C21.7673136,4.29816815 22.185405,3.53980105 22.4287204,2.77537588 C22.5809301,2.29717798 22.640483,1.90503585 22.6476664,1.63938217 C22.6647319,1.0082802 22.1666373,0.482845327 21.535141,0.465790542 C20.9036447,0.448735758 20.3778815,0.946519359 20.3608161,1.57762134 C20.3609439,1.57289349 20.3583769,1.60298995 20.3493287,1.6625702 Z" id="Path-2-Copy"></path>
                    <path d="M22.4287204,21.0016946 C22.185405,20.2372694 21.7673136,19.4789023 21.1364744,18.7786034 C19.4275706,16.8815375 16.5180183,15.7800505 12.215607,15.7751871 C7.90070415,15.7703095 4.95208056,16.9227318 3.19092114,18.9022341 C2.54969812,19.6229538 2.1161366,20.4011103 1.85329584,21.1845958 C1.68955614,21.6726772 1.61892122,22.0714582 1.60332054,22.3387522 C1.56653518,22.9690134 2.04796159,23.5097428 2.67861652,23.5465052 C3.30927144,23.5832675 3.85033869,23.1021417 3.88712404,22.4718806 C3.89153905,22.3962361 3.92720561,22.1948747 4.02232326,21.9113445 C4.19091144,21.4088105 4.4738749,20.9009476 4.90054302,20.4213825 C6.19739077,18.9637558 8.51676851,18.0572641 12.2130194,18.0614424 C15.9085374,18.0656198 18.196218,18.931681 19.4362642,20.3082648 C19.8400068,20.7564622 20.1003134,21.228627 20.2486745,21.6947337 C20.2984561,21.8511326 20.3308348,21.9927219 20.3493287,22.1145003 C20.3583769,22.1740805 20.3609439,22.204177 20.3608161,22.1994492 C20.3778815,22.8305511 20.9036447,23.3283347 21.535141,23.3112799 C22.1666373,23.2942252 22.6647319,22.7687903 22.6476664,22.1376883 C22.640483,21.8720346 22.5809301,21.4798925 22.4287204,21.0016946 Z" id="Path-2-Copy-2"></path>
                </g>
            </g>
            <g id="Group-2" transform="translate(368.000000, 2.000000)">
                <path d="M207.158408,5.1009545 C207.158408,5.1009545 173.695821,0 137.550518,0 C101.405215,0 67.9426289,5.1009545 67.9426289,5.1009545 C32.2108962,10.5236897 11.4628482,33.6297337 5.10557893,67.8810892 C5.10557893,67.8810892 5.68434189e-14,101.313367 5.68434189e-14,137.425931 C5.68434189e-14,173.538494 5.10557893,206.970772 5.10557893,206.970772 C11.8032201,241.609727 33.9090959,263.019109 67.9426289,269.750907 C67.9426289,269.750907 76.4885262,271.052656 89.5910155,272.339778 L125.864415,328.165063 C132.320502,334.611646 142.784194,334.611646 149.236621,328.165063 L185.513681,272.339778 C198.61251,271.052656 207.158408,269.750907 207.158408,269.750907 C242.758383,264.379364 263.846803,241.609727 269.995458,206.970772 C269.995458,206.970772 275.101036,173.538494 275.101036,137.425931 C275.101036,101.313367 269.995458,67.8810892 269.995458,67.8810892 C265.208291,32.9496065 242.758383,11.2001603 207.158408,5.1009545 Z" id="Fill-1-Copy" fill="#FFEEEE"></path>
                <text id="Family" font-family="Montserrat-Bold, Montserrat" font-size="64" font-weight="bold" letter-spacing="-2.13333368" fill="#6C4A4A">
                    <tspan x="35.764001" y="161">Family</tspan>
                </text>
            </g>
        </g>
    </g>
</svg>