<?xml version="1.0" encoding="UTF-8"?>
<svg width="728px" height="695px" viewBox="0 0 728 695" version="1.1" xmlns="http://www.w3.org/2000/svg" xmlns:xlink="http://www.w3.org/1999/xlink">
    <!-- Generator: Sketch 40.2 (33826) - http://www.bohemiancoding.com/sketch -->
    <title>Group 2</title>
    <desc>Created with Sketch.</desc>
    <defs>
        <path d="M0,0 L249,0 L249,134 C249,134 177.548114,143.004789 115,142 C52.4518857,140.995211 0,130 0,130 L0,0 Z" id="path-1"></path>
    </defs>
    <g id="Page-1" stroke="none" stroke-width="1" fill="none" fill-rule="evenodd">
        <g id="Group-2" transform="translate(0.000000, -23.000000)">
            <ellipse id="Oval-2-Copy-2" fill="#CBBFBF" opacity="0.245527627" cx="364" cy="635" rx="364" ry="83"></ellipse>
            <g id="Group" transform="translate(41.000000, 269.000000)">
                <path d="M3,235 L59,192 L127,176 L134,74 L157,22 L240,13 L291,5.68434189e-14 C291,5.68434189e-14 344,5 348,5 C352,5 406,5 412,5 C418,5 468,13 473,13 C478,13 511,22 511,22 C511,22 545,182 545,182 L640,222 L652,263 L621,301 L419,337 L118,323 L18,284 L3,235 Z" id="Path-8" fill="#BFAEAE"></path>
                <path d="M107,233 L119,167 C119,167 222,204 318,204 C414,204 536,176 536,176 L541,241 C541,241 429.506519,283.944821 324,282 C218.493481,280.055179 107,233 107,233 Z" id="Path-9" fill="#FFEEEE"></path>
                <path d="M107.905537,238.727133 L149,37.8669555 C149,37.8669555 200,64 265,70 C330,76 365,76 425,70 C485,64 510.720888,37.8669555 514,37.8669555 C517.279112,37.8669555 545.472669,236.205997 545.472669,236.205997" id="Path-5" stroke="#6C4B4B" stroke-width="30" stroke-linecap="round" stroke-linejoin="round"></path>
                <path d="M125,169 C125,169 240,203 321,203 C402,203 455,190 531.378156,170.589255" id="Path-6" stroke="#6C4B4B" stroke-width="30"></path>
                <path d="M109,240 C109,240 314.654462,339 544,240" id="Path-4" stroke="#6C4B4B" stroke-width="30" stroke-linecap="round" stroke-linejoin="round"></path>
                <path d="M536.83313,335.750737 C610.784213,317.125021 654,288.939599 654,259.165644 C654,207.250877 522.613371,174.165644 326,174.165644 C129.386629,174.165644 0,207.250877 0,259.165644 C0,289.613134 44.5051828,318.399408 120.975708,337" id="Oval-5" stroke="#6C4B4B" stroke-width="30" transform="translate(327.000000, 255.582822) scale(1, -1) translate(-327.000000, -255.582822) "></path>
                <ellipse id="Oval-10" stroke="#6C4B4B" stroke-width="30" cx="332" cy="39" rx="183" ry="33"></ellipse>
            </g>
            <g id="Group-Copy-6" transform="translate(420.000000, 0.000000)">
                <path d="M157.434935,309.059944 C156.847752,309.059944 156.254388,308.994946 155.664114,308.864951 C151.918501,308.035457 149.254543,304.711292 149.254543,300.870241 L149.294718,209.808546 L90.598006,209.734263 C87.7980681,209.731168 85.1928278,208.291935 83.6970552,205.917973 C82.2012826,203.544012 82.0220372,200.569596 83.2211276,198.034688 L165.392816,24.6209825 C167.03384,21.1606319 170.841261,19.3035564 174.577602,20.1454306 C178.307762,20.9873049 180.956268,24.3114699 180.950088,28.1401405 L180.851193,134.182244 L231.095555,134.179149 C233.886221,134.179149 236.485281,135.606002 237.987234,137.964487 C239.489188,140.322973 239.683885,143.288104 238.506428,145.823012 L164.845809,304.327497 C163.482925,307.258581 160.559369,309.059944 157.434935,309.059944 L157.434935,309.059944 Z" id="Combined-Shape-Copy" fill="#E3966B" transform="translate(160.851511, 164.502027) rotate(28.000000) translate(-160.851511, -164.502027) "></path>
                <path d="M134.177043,309.059944 C133.58986,309.059944 132.996496,308.994946 132.406222,308.864951 C128.660609,308.035457 125.996651,304.711292 125.996651,300.870241 L126.036826,209.808546 L67.3401141,209.734263 C64.5401761,209.731168 61.9349359,208.291935 60.4391633,205.917973 C58.9433907,203.544012 58.7641452,200.569596 59.9632356,198.034688 L142.134924,24.6209825 C143.775948,21.1606319 147.583369,19.3035564 151.31971,20.1454306 C155.04987,20.9873049 157.698376,24.3114699 157.692196,28.1401405 L157.593301,134.182244 L207.837663,134.179149 C210.628329,134.179149 213.227389,135.606002 214.729342,137.964487 C216.231296,140.322973 216.425993,143.288104 215.248536,145.823012 L141.587917,304.327497 C140.225033,307.258581 137.301477,309.059944 134.177043,309.059944 L134.177043,309.059944 Z" id="Combined-Shape" stroke="#6C4B4B" stroke-width="30" stroke-linecap="round" stroke-linejoin="round" transform="translate(137.593619, 164.502027) rotate(28.000000) translate(-137.593619, -164.502027) "></path>
            </g>
            <g id="Group-Copy-5" transform="translate(190.777431, 124.399217) rotate(39.000000) translate(-190.777431, -124.399217) translate(62.277431, 86.399217)">
                <ellipse id="Oval-4-Copy-2" fill="#E3966B" cx="110.5" cy="26.2205692" rx="104.5" ry="19.2205692"></ellipse>
                <path d="M6.81818182,26.6 L10.6363636,62.0666667 L85.7272727,74.7333333 L195.181818,74.7333333 C196.454545,74.7333333 241,62.0666667 241,62.0666667 L246.090909,26.6 L182.454545,40.5333333 L79.3636364,38 L18.2727273,29.1333333 L6.81818182,26.6 Z" id="Path-7" fill="#E3966B"></path>
                <path d="M29.7272727,33.5666667 L29.7272727,61.4621064" id="Line" stroke="#BFAEAE" stroke-width="6" stroke-linecap="square"></path>
                <path d="M51.3636364,33.5666667 L51.3636364,61.4621064" id="Line-Copy-5" stroke="#FFFFFF" stroke-width="6" stroke-linecap="square"></path>
                <path d="M89.5454545,41.1666667 L89.5454545,69.0621064" id="Line-Copy-6" stroke="#BFAEAE" stroke-width="6" stroke-linecap="square"></path>
                <path d="M146.818182,43.7 L146.818182,71.5954397" id="Line-Copy-10" stroke="#BFAEAE" stroke-width="6" stroke-linecap="square"></path>
                <path d="M108.636364,41.1666667 L108.636364,69.0621064" id="Line-Copy-8" stroke="#BFAEAE" stroke-width="6" stroke-linecap="square"></path>
                <path d="M165.909091,43.7 L165.909091,71.5954397" id="Line-Copy-11" stroke="#BFAEAE" stroke-width="6" stroke-linecap="square"></path>
                <path d="M127.727273,41.1666667 L127.727273,69.0621064" id="Line-Copy-9" stroke="#BFAEAE" stroke-width="6" stroke-linecap="square"></path>
                <path d="M185,43.7 L185,71.5954397" id="Line-Copy-12" stroke="#BFAEAE" stroke-width="6" stroke-linecap="square"></path>
                <path d="M70.4545455,41.1666667 L70.4545455,69.0621064" id="Line-Copy-7" stroke="#FFFFFF" stroke-width="6" stroke-linecap="square"></path>
                <ellipse id="Oval-4" stroke="#6C4B4B" stroke-width="20" cx="128.363636" cy="20.2666667" rx="119" ry="20.2666667"></ellipse>
                <path d="M247.363636,76 C247.363636,64.8070291 194.085522,55.7333333 128.363636,55.7333333 C62.6417511,55.7333333 9.36363636,64.8070291 9.36363636,76" id="Oval-4-Copy" stroke="#6C4B4B" stroke-width="20" transform="translate(128.363636, 65.866667) scale(1, -1) translate(-128.363636, -65.866667) "></path>
                <path d="M247,18.6333333 L247,59.1666667" id="Line" stroke="#6C4B4B" stroke-width="20" stroke-linecap="round" stroke-linejoin="round"></path>
                <path d="M10,16.6333333 L10,57.1666667" id="Line-Copy-4" stroke="#6C4B4B" stroke-width="20" stroke-linecap="round" stroke-linejoin="round"></path>
            </g>
            <g id="Group-3-Copy-7" transform="translate(249.000000, 186.000000)">
                <mask id="mask-2" fill="white">
                    <use xlink:href="#path-1"></use>
                </mask>
                <g id="Mask"></g>
                <g id="Group-3-Copy-5" mask="url(#mask-2)">
                    <g transform="translate(123.658587, 139.658587) rotate(22.000000) translate(-123.658587, -139.658587) translate(7.158587, 23.158587)">
                        <ellipse id="Oval-8-Copy" stroke="none" fill="#E3966B" fill-rule="evenodd" cx="130.92011" cy="127.285426" rx="82.7261109" ry="82.5354261"></ellipse>
                        <ellipse id="Oval-8" stroke="#6C4B4B" stroke-width="30" fill="none" cx="116.5" cy="115.719923" rx="80.533557" ry="80.3479261"></ellipse>
                        <path d="M161.458054,115.719923 L232.60906,115.719923" id="Line" stroke="#6C4B4B" stroke-width="30" stroke-linecap="round" stroke-linejoin="round" fill="none"></path>
                        <path d="M80.9244966,36.9321509 L152.075503,36.9321509" id="Line-Copy-6" stroke="#6C4B4B" stroke-width="30" stroke-linecap="round" stroke-linejoin="round" fill="none" transform="translate(116.500000, 36.932151) rotate(90.000000) translate(-116.500000, -36.932151) "></path>
                        <path d="M80.9244966,196.067849 L152.075503,196.067849" id="Line-Copy-7" stroke="#6C4B4B" stroke-width="30" stroke-linecap="round" stroke-linejoin="round" fill="none" transform="translate(116.500000, 196.067849) rotate(90.000000) translate(-116.500000, -196.067849) "></path>
                        <path d="M0.390939597,115.719923 L71.5419463,115.719923" id="Line-Copy-5" stroke="#6C4B4B" stroke-width="30" stroke-linecap="round" stroke-linejoin="round" fill="none"></path>
                    </g>
                </g>
            </g>
            <path d="M519.5,364.5 L536,482" id="Line" stroke="#FFFFFF" stroke-width="20" stroke-linecap="round" stroke-linejoin="round"></path>
            <g id="Group-3-Copy-8" transform="translate(88.000000, 59.000000)" fill="#BFAEAE">
                <g id="Group-2-Copy" transform="translate(525.970563, 237.970563) rotate(-315.000000) translate(-525.970563, -237.970563) translate(513.970563, 225.970563)">
                    <path d="M1.66360898,3.89769951 C1.78546346,3.91618189 1.92714123,3.94854042 2.08363785,3.99829087 C2.55003578,4.14655931 3.02249556,4.40670346 3.47097305,4.81019396 C4.8484169,6.04946579 5.71501921,8.33571797 5.71919925,12.0289284 C5.72338012,15.7228713 4.81632206,18.0408008 3.35778462,19.3368388 C2.87791994,19.7632405 2.36973965,20.0460273 1.86689174,20.2145102 C1.58318436,20.3095684 1.38169712,20.3452127 1.30600537,20.349625 C0.67535045,20.3863874 0.193924041,20.9271168 0.230709392,21.5573779 C0.267494744,22.187639 0.808561991,22.6687648 1.43921691,22.6320024 C1.70667795,22.6164115 2.10570809,22.5458207 2.59409448,22.3821832 C3.37806952,22.1195066 4.15671217,21.6862158 4.87788224,21.0453932 C6.85862127,19.2853334 8.01176366,16.338551 8.00688303,12.0263424 C8.00201652,7.72661761 6.89984137,4.81888208 5.00159018,3.11104533 C4.30085366,2.48060001 3.54201273,2.06276967 2.77710995,1.81960621 C2.29861327,1.66749157 1.90622612,1.6079759 1.64040647,1.60079692 C1.00891017,1.58374214 0.48314701,2.08152574 0.46608157,2.71262771 C0.44901613,3.34372969 0.947110748,3.86916456 1.57860704,3.88621935 C1.57387624,3.88609158 1.60399151,3.88865697 1.66360898,3.89769951 Z" id="Path-2"></path>
                    <path d="M21.0148165,1.81960621 C20.2499138,2.06276967 19.4910728,2.48060001 18.7903363,3.11104533 C16.8920851,4.81888208 15.78991,7.72661761 15.7850435,12.0263424 C15.7801628,16.338551 16.9333052,19.2853334 18.9140443,21.0453932 C19.6352143,21.6862158 20.413857,22.1195066 21.197832,22.3821832 C21.6862184,22.5458207 22.0852485,22.6164115 22.3527096,22.6320024 C22.9833645,22.6687648 23.5244318,22.187639 23.5612171,21.5573779 C23.5980025,20.9271168 23.116576,20.3863874 22.4859211,20.349625 C22.4102294,20.3452127 22.2087421,20.3095684 21.9250348,20.2145102 C21.4221868,20.0460273 20.9140066,19.7632405 20.4341419,19.3368388 C18.9756044,18.0408008 18.0685464,15.7228713 18.0727272,12.0289284 C18.0769073,8.33571797 18.9435096,6.04946579 20.3209534,4.81019396 C20.7694309,4.40670346 21.2418907,4.14655931 21.7082886,3.99829087 C21.8647853,3.94854042 22.006463,3.91618189 22.1283175,3.89769951 C22.187935,3.88865697 22.2180503,3.88609158 22.2133195,3.88621935 C22.8448157,3.86916456 23.3429104,3.34372969 23.3258449,2.71262771 C23.3087795,2.08152574 22.7830163,1.58374214 22.15152,1.60079692 C21.8857004,1.6079759 21.4933132,1.66749157 21.0148165,1.81960621 Z" id="Path-2-Copy-3"></path>
                    <path d="M20.3493287,1.6625702 C20.3308348,1.78434859 20.2984561,1.92593789 20.2486745,2.08233679 C20.1003134,2.5484435 19.8400068,3.02060828 19.4362642,3.46880572 C18.196218,4.84538948 15.9085374,5.71145067 12.2130194,5.7156281 C8.51676851,5.71980636 6.19739077,4.81331468 4.90054302,3.35568798 C4.4738749,2.87612293 4.19091144,2.36825995 4.02232326,1.86572603 C3.92720561,1.58219579 3.89153905,1.38083437 3.88712404,1.30518989 C3.85033869,0.674928752 3.30927144,0.193802952 2.67861652,0.230565334 C2.04796159,0.267327716 1.56653518,0.808057114 1.60332054,1.43831825 C1.61892122,1.70561228 1.68955614,2.10439326 1.85329584,2.59247469 C2.1161366,3.37596021 2.54969812,4.15411666 3.19092114,4.87483642 C4.95208056,6.85433865 7.90070415,8.00676101 12.215607,8.00188342 C16.5180183,7.99701995 19.4275706,6.89553302 21.1364744,4.99846712 C21.7673136,4.29816815 22.185405,3.53980105 22.4287204,2.77537588 C22.5809301,2.29717798 22.640483,1.90503585 22.6476664,1.63938217 C22.6647319,1.0082802 22.1666373,0.482845327 21.535141,0.465790542 C20.9036447,0.448735758 20.3778815,0.946519359 20.3608161,1.57762134 C20.3609439,1.57289349 20.3583769,1.60298995 20.3493287,1.6625702 Z" id="Path-2-Copy"></path>
                    <path d="M22.4287204,21.0016946 C22.185405,20.2372694 21.7673136,19.4789023 21.1364744,18.7786034 C19.4275706,16.8815375 16.5180183,15.7800505 12.215607,15.7751871 C7.90070415,15.7703095 4.95208056,16.9227318 3.19092114,18.9022341 C2.54969812,19.6229538 2.1161366,20.4011103 1.85329584,21.1845958 C1.68955614,21.6726772 1.61892122,22.0714582 1.60332054,22.3387522 C1.56653518,22.9690134 2.04796159,23.5097428 2.67861652,23.5465052 C3.30927144,23.5832675 3.85033869,23.1021417 3.88712404,22.4718806 C3.89153905,22.3962361 3.92720561,22.1948747 4.02232326,21.9113445 C4.19091144,21.4088105 4.4738749,20.9009476 4.90054302,20.4213825 C6.19739077,18.9637558 8.51676851,18.0572641 12.2130194,18.0614424 C15.9085374,18.0656198 18.196218,18.931681 19.4362642,20.3082648 C19.8400068,20.7564622 20.1003134,21.228627 20.2486745,21.6947337 C20.2984561,21.8511326 20.3308348,21.9927219 20.3493287,22.1145003 C20.3583769,22.1740805 20.3609439,22.204177 20.3608161,22.1994492 C20.3778815,22.8305511 20.9036447,23.3283347 21.535141,23.3112799 C22.1666373,23.2942252 22.6647319,22.7687903 22.6476664,22.1376883 C22.640483,21.8720346 22.5809301,21.4798925 22.4287204,21.0016946 Z" id="Path-2-Copy-2"></path>
                </g>
                <g id="Group-2-Copy-2" transform="translate(16.970563, 92.970563) rotate(-315.000000) translate(-16.970563, -92.970563) translate(4.970563, 80.970563)">
                    <path d="M1.66360898,3.89769951 C1.78546346,3.91618189 1.92714123,3.94854042 2.08363785,3.99829087 C2.55003578,4.14655931 3.02249556,4.40670346 3.47097305,4.81019396 C4.8484169,6.04946579 5.71501921,8.33571797 5.71919925,12.0289284 C5.72338012,15.7228713 4.81632206,18.0408008 3.35778462,19.3368388 C2.87791994,19.7632405 2.36973965,20.0460273 1.86689174,20.2145102 C1.58318436,20.3095684 1.38169712,20.3452127 1.30600537,20.349625 C0.67535045,20.3863874 0.193924041,20.9271168 0.230709392,21.5573779 C0.267494744,22.187639 0.808561991,22.6687648 1.43921691,22.6320024 C1.70667795,22.6164115 2.10570809,22.5458207 2.59409448,22.3821832 C3.37806952,22.1195066 4.15671217,21.6862158 4.87788224,21.0453932 C6.85862127,19.2853334 8.01176366,16.338551 8.00688303,12.0263424 C8.00201652,7.72661761 6.89984137,4.81888208 5.00159018,3.11104533 C4.30085366,2.48060001 3.54201273,2.06276967 2.77710995,1.81960621 C2.29861327,1.66749157 1.90622612,1.6079759 1.64040647,1.60079692 C1.00891017,1.58374214 0.48314701,2.08152574 0.46608157,2.71262771 C0.44901613,3.34372969 0.947110748,3.86916456 1.57860704,3.88621935 C1.57387624,3.88609158 1.60399151,3.88865697 1.66360898,3.89769951 Z" id="Path-2"></path>
                    <path d="M21.0148165,1.81960621 C20.2499138,2.06276967 19.4910728,2.48060001 18.7903363,3.11104533 C16.8920851,4.81888208 15.78991,7.72661761 15.7850435,12.0263424 C15.7801628,16.338551 16.9333052,19.2853334 18.9140443,21.0453932 C19.6352143,21.6862158 20.413857,22.1195066 21.197832,22.3821832 C21.6862184,22.5458207 22.0852485,22.6164115 22.3527096,22.6320024 C22.9833645,22.6687648 23.5244318,22.187639 23.5612171,21.5573779 C23.5980025,20.9271168 23.116576,20.3863874 22.4859211,20.349625 C22.4102294,20.3452127 22.2087421,20.3095684 21.9250348,20.2145102 C21.4221868,20.0460273 20.9140066,19.7632405 20.4341419,19.3368388 C18.9756044,18.0408008 18.0685464,15.7228713 18.0727272,12.0289284 C18.0769073,8.33571797 18.9435096,6.04946579 20.3209534,4.81019396 C20.7694309,4.40670346 21.2418907,4.14655931 21.7082886,3.99829087 C21.8647853,3.94854042 22.006463,3.91618189 22.1283175,3.89769951 C22.187935,3.88865697 22.2180503,3.88609158 22.2133195,3.88621935 C22.8448157,3.86916456 23.3429104,3.34372969 23.3258449,2.71262771 C23.3087795,2.08152574 22.7830163,1.58374214 22.15152,1.60079692 C21.8857004,1.6079759 21.4933132,1.66749157 21.0148165,1.81960621 Z" id="Path-2-Copy-3"></path>
                    <path d="M20.3493287,1.6625702 C20.3308348,1.78434859 20.2984561,1.92593789 20.2486745,2.08233679 C20.1003134,2.5484435 19.8400068,3.02060828 19.4362642,3.46880572 C18.196218,4.84538948 15.9085374,5.71145067 12.2130194,5.7156281 C8.51676851,5.71980636 6.19739077,4.81331468 4.90054302,3.35568798 C4.4738749,2.87612293 4.19091144,2.36825995 4.02232326,1.86572603 C3.92720561,1.58219579 3.89153905,1.38083437 3.88712404,1.30518989 C3.85033869,0.674928752 3.30927144,0.193802952 2.67861652,0.230565334 C2.04796159,0.267327716 1.56653518,0.808057114 1.60332054,1.43831825 C1.61892122,1.70561228 1.68955614,2.10439326 1.85329584,2.59247469 C2.1161366,3.37596021 2.54969812,4.15411666 3.19092114,4.87483642 C4.95208056,6.85433865 7.90070415,8.00676101 12.215607,8.00188342 C16.5180183,7.99701995 19.4275706,6.89553302 21.1364744,4.99846712 C21.7673136,4.29816815 22.185405,3.53980105 22.4287204,2.77537588 C22.5809301,2.29717798 22.640483,1.90503585 22.6476664,1.63938217 C22.6647319,1.0082802 22.1666373,0.482845327 21.535141,0.465790542 C20.9036447,0.448735758 20.3778815,0.946519359 20.3608161,1.57762134 C20.3609439,1.57289349 20.3583769,1.60298995 20.3493287,1.6625702 Z" id="Path-2-Copy"></path>
                    <path d="M22.4287204,21.0016946 C22.185405,20.2372694 21.7673136,19.4789023 21.1364744,18.7786034 C19.4275706,16.8815375 16.5180183,15.7800505 12.215607,15.7751871 C7.90070415,15.7703095 4.95208056,16.9227318 3.19092114,18.9022341 C2.54969812,19.6229538 2.1161366,20.4011103 1.85329584,21.1845958 C1.68955614,21.6726772 1.61892122,22.0714582 1.60332054,22.3387522 C1.56653518,22.9690134 2.04796159,23.5097428 2.67861652,23.5465052 C3.30927144,23.5832675 3.85033869,23.1021417 3.88712404,22.4718806 C3.89153905,22.3962361 3.92720561,22.1948747 4.02232326,21.9113445 C4.19091144,21.4088105 4.4738749,20.9009476 4.90054302,20.4213825 C6.19739077,18.9637558 8.51676851,18.0572641 12.2130194,18.0614424 C15.9085374,18.0656198 18.196218,18.931681 19.4362642,20.3082648 C19.8400068,20.7564622 20.1003134,21.228627 20.2486745,21.6947337 C20.2984561,21.8511326 20.3308348,21.9927219 20.3493287,22.1145003 C20.3583769,22.1740805 20.3609439,22.204177 20.3608161,22.1994492 C20.3778815,22.8305511 20.9036447,23.3283347 21.535141,23.3112799 C22.1666373,23.2942252 22.6647319,22.7687903 22.6476664,22.1376883 C22.640483,21.8720346 22.5809301,21.4798925 22.4287204,21.0016946 Z" id="Path-2-Copy-2"></path>
                </g>
                <g id="Group-2-Copy-4" transform="translate(260.970563, 131.970563) rotate(-315.000000) translate(-260.970563, -131.970563) translate(248.970563, 119.970563)">
                    <path d="M1.66360898,3.89769951 C1.78546346,3.91618189 1.92714123,3.94854042 2.08363785,3.99829087 C2.55003578,4.14655931 3.02249556,4.40670346 3.47097305,4.81019396 C4.8484169,6.04946579 5.71501921,8.33571797 5.71919925,12.0289284 C5.72338012,15.7228713 4.81632206,18.0408008 3.35778462,19.3368388 C2.87791994,19.7632405 2.36973965,20.0460273 1.86689174,20.2145102 C1.58318436,20.3095684 1.38169712,20.3452127 1.30600537,20.349625 C0.67535045,20.3863874 0.193924041,20.9271168 0.230709392,21.5573779 C0.267494744,22.187639 0.808561991,22.6687648 1.43921691,22.6320024 C1.70667795,22.6164115 2.10570809,22.5458207 2.59409448,22.3821832 C3.37806952,22.1195066 4.15671217,21.6862158 4.87788224,21.0453932 C6.85862127,19.2853334 8.01176366,16.338551 8.00688303,12.0263424 C8.00201652,7.72661761 6.89984137,4.81888208 5.00159018,3.11104533 C4.30085366,2.48060001 3.54201273,2.06276967 2.77710995,1.81960621 C2.29861327,1.66749157 1.90622612,1.6079759 1.64040647,1.60079692 C1.00891017,1.58374214 0.48314701,2.08152574 0.46608157,2.71262771 C0.44901613,3.34372969 0.947110748,3.86916456 1.57860704,3.88621935 C1.57387624,3.88609158 1.60399151,3.88865697 1.66360898,3.89769951 Z" id="Path-2"></path>
                    <path d="M21.0148165,1.81960621 C20.2499138,2.06276967 19.4910728,2.48060001 18.7903363,3.11104533 C16.8920851,4.81888208 15.78991,7.72661761 15.7850435,12.0263424 C15.7801628,16.338551 16.9333052,19.2853334 18.9140443,21.0453932 C19.6352143,21.6862158 20.413857,22.1195066 21.197832,22.3821832 C21.6862184,22.5458207 22.0852485,22.6164115 22.3527096,22.6320024 C22.9833645,22.6687648 23.5244318,22.187639 23.5612171,21.5573779 C23.5980025,20.9271168 23.116576,20.3863874 22.4859211,20.349625 C22.4102294,20.3452127 22.2087421,20.3095684 21.9250348,20.2145102 C21.4221868,20.0460273 20.9140066,19.7632405 20.4341419,19.3368388 C18.9756044,18.0408008 18.0685464,15.7228713 18.0727272,12.0289284 C18.0769073,8.33571797 18.9435096,6.04946579 20.3209534,4.81019396 C20.7694309,4.40670346 21.2418907,4.14655931 21.7082886,3.99829087 C21.8647853,3.94854042 22.006463,3.91618189 22.1283175,3.89769951 C22.187935,3.88865697 22.2180503,3.88609158 22.2133195,3.88621935 C22.8448157,3.86916456 23.3429104,3.34372969 23.3258449,2.71262771 C23.3087795,2.08152574 22.7830163,1.58374214 22.15152,1.60079692 C21.8857004,1.6079759 21.4933132,1.66749157 21.0148165,1.81960621 Z" id="Path-2-Copy-3"></path>
                    <path d="M20.3493287,1.6625702 C20.3308348,1.78434859 20.2984561,1.92593789 20.2486745,2.08233679 C20.1003134,2.5484435 19.8400068,3.02060828 19.4362642,3.46880572 C18.196218,4.84538948 15.9085374,5.71145067 12.2130194,5.7156281 C8.51676851,5.71980636 6.19739077,4.81331468 4.90054302,3.35568798 C4.4738749,2.87612293 4.19091144,2.36825995 4.02232326,1.86572603 C3.92720561,1.58219579 3.89153905,1.38083437 3.88712404,1.30518989 C3.85033869,0.674928752 3.30927144,0.193802952 2.67861652,0.230565334 C2.04796159,0.267327716 1.56653518,0.808057114 1.60332054,1.43831825 C1.61892122,1.70561228 1.68955614,2.10439326 1.85329584,2.59247469 C2.1161366,3.37596021 2.54969812,4.15411666 3.19092114,4.87483642 C4.95208056,6.85433865 7.90070415,8.00676101 12.215607,8.00188342 C16.5180183,7.99701995 19.4275706,6.89553302 21.1364744,4.99846712 C21.7673136,4.29816815 22.185405,3.53980105 22.4287204,2.77537588 C22.5809301,2.29717798 22.640483,1.90503585 22.6476664,1.63938217 C22.6647319,1.0082802 22.1666373,0.482845327 21.535141,0.465790542 C20.9036447,0.448735758 20.3778815,0.946519359 20.3608161,1.57762134 C20.3609439,1.57289349 20.3583769,1.60298995 20.3493287,1.6625702 Z" id="Path-2-Copy"></path>
                    <path d="M22.4287204,21.0016946 C22.185405,20.2372694 21.7673136,19.4789023 21.1364744,18.7786034 C19.4275706,16.8815375 16.5180183,15.7800505 12.215607,15.7751871 C7.90070415,15.7703095 4.95208056,16.9227318 3.19092114,18.9022341 C2.54969812,19.6229538 2.1161366,20.4011103 1.85329584,21.1845958 C1.68955614,21.6726772 1.61892122,22.0714582 1.60332054,22.3387522 C1.56653518,22.9690134 2.04796159,23.5097428 2.67861652,23.5465052 C3.30927144,23.5832675 3.85033869,23.1021417 3.88712404,22.4718806 C3.89153905,22.3962361 3.92720561,22.1948747 4.02232326,21.9113445 C4.19091144,21.4088105 4.4738749,20.9009476 4.90054302,20.4213825 C6.19739077,18.9637558 8.51676851,18.0572641 12.2130194,18.0614424 C15.9085374,18.0656198 18.196218,18.931681 19.4362642,20.3082648 C19.8400068,20.7564622 20.1003134,21.228627 20.2486745,21.6947337 C20.2984561,21.8511326 20.3308348,21.9927219 20.3493287,22.1145003 C20.3583769,22.1740805 20.3609439,22.204177 20.3608161,22.1994492 C20.3778815,22.8305511 20.9036447,23.3283347 21.535141,23.3112799 C22.1666373,23.2942252 22.6647319,22.7687903 22.6476664,22.1376883 C22.640483,21.8720346 22.5809301,21.4798925 22.4287204,21.0016946 Z" id="Path-2-Copy-2"></path>
                </g>
                <g id="Group-2-Copy-5" transform="translate(372.970563, 16.970563) rotate(-315.000000) translate(-372.970563, -16.970563) translate(360.970563, 4.970563)">
                    <path d="M1.66360898,3.89769951 C1.78546346,3.91618189 1.92714123,3.94854042 2.08363785,3.99829087 C2.55003578,4.14655931 3.02249556,4.40670346 3.47097305,4.81019396 C4.8484169,6.04946579 5.71501921,8.33571797 5.71919925,12.0289284 C5.72338012,15.7228713 4.81632206,18.0408008 3.35778462,19.3368388 C2.87791994,19.7632405 2.36973965,20.0460273 1.86689174,20.2145102 C1.58318436,20.3095684 1.38169712,20.3452127 1.30600537,20.349625 C0.67535045,20.3863874 0.193924041,20.9271168 0.230709392,21.5573779 C0.267494744,22.187639 0.808561991,22.6687648 1.43921691,22.6320024 C1.70667795,22.6164115 2.10570809,22.5458207 2.59409448,22.3821832 C3.37806952,22.1195066 4.15671217,21.6862158 4.87788224,21.0453932 C6.85862127,19.2853334 8.01176366,16.338551 8.00688303,12.0263424 C8.00201652,7.72661761 6.89984137,4.81888208 5.00159018,3.11104533 C4.30085366,2.48060001 3.54201273,2.06276967 2.77710995,1.81960621 C2.29861327,1.66749157 1.90622612,1.6079759 1.64040647,1.60079692 C1.00891017,1.58374214 0.48314701,2.08152574 0.46608157,2.71262771 C0.44901613,3.34372969 0.947110748,3.86916456 1.57860704,3.88621935 C1.57387624,3.88609158 1.60399151,3.88865697 1.66360898,3.89769951 Z" id="Path-2"></path>
                    <path d="M21.0148165,1.81960621 C20.2499138,2.06276967 19.4910728,2.48060001 18.7903363,3.11104533 C16.8920851,4.81888208 15.78991,7.72661761 15.7850435,12.0263424 C15.7801628,16.338551 16.9333052,19.2853334 18.9140443,21.0453932 C19.6352143,21.6862158 20.413857,22.1195066 21.197832,22.3821832 C21.6862184,22.5458207 22.0852485,22.6164115 22.3527096,22.6320024 C22.9833645,22.6687648 23.5244318,22.187639 23.5612171,21.5573779 C23.5980025,20.9271168 23.116576,20.3863874 22.4859211,20.349625 C22.4102294,20.3452127 22.2087421,20.3095684 21.9250348,20.2145102 C21.4221868,20.0460273 20.9140066,19.7632405 20.4341419,19.3368388 C18.9756044,18.0408008 18.0685464,15.7228713 18.0727272,12.0289284 C18.0769073,8.33571797 18.9435096,6.04946579 20.3209534,4.81019396 C20.7694309,4.40670346 21.2418907,4.14655931 21.7082886,3.99829087 C21.8647853,3.94854042 22.006463,3.91618189 22.1283175,3.89769951 C22.187935,3.88865697 22.2180503,3.88609158 22.2133195,3.88621935 C22.8448157,3.86916456 23.3429104,3.34372969 23.3258449,2.71262771 C23.3087795,2.08152574 22.7830163,1.58374214 22.15152,1.60079692 C21.8857004,1.6079759 21.4933132,1.66749157 21.0148165,1.81960621 Z" id="Path-2-Copy-3"></path>
                    <path d="M20.3493287,1.6625702 C20.3308348,1.78434859 20.2984561,1.92593789 20.2486745,2.08233679 C20.1003134,2.5484435 19.8400068,3.02060828 19.4362642,3.46880572 C18.196218,4.84538948 15.9085374,5.71145067 12.2130194,5.7156281 C8.51676851,5.71980636 6.19739077,4.81331468 4.90054302,3.35568798 C4.4738749,2.87612293 4.19091144,2.36825995 4.02232326,1.86572603 C3.92720561,1.58219579 3.89153905,1.38083437 3.88712404,1.30518989 C3.85033869,0.674928752 3.30927144,0.193802952 2.67861652,0.230565334 C2.04796159,0.267327716 1.56653518,0.808057114 1.60332054,1.43831825 C1.61892122,1.70561228 1.68955614,2.10439326 1.85329584,2.59247469 C2.1161366,3.37596021 2.54969812,4.15411666 3.19092114,4.87483642 C4.95208056,6.85433865 7.90070415,8.00676101 12.215607,8.00188342 C16.5180183,7.99701995 19.4275706,6.89553302 21.1364744,4.99846712 C21.7673136,4.29816815 22.185405,3.53980105 22.4287204,2.77537588 C22.5809301,2.29717798 22.640483,1.90503585 22.6476664,1.63938217 C22.6647319,1.0082802 22.1666373,0.482845327 21.535141,0.465790542 C20.9036447,0.448735758 20.3778815,0.946519359 20.3608161,1.57762134 C20.3609439,1.57289349 20.3583769,1.60298995 20.3493287,1.6625702 Z" id="Path-2-Copy"></path>
                    <path d="M22.4287204,21.0016946 C22.185405,20.2372694 21.7673136,19.4789023 21.1364744,18.7786034 C19.4275706,16.8815375 16.5180183,15.7800505 12.215607,15.7751871 C7.90070415,15.7703095 4.95208056,16.9227318 3.19092114,18.9022341 C2.54969812,19.6229538 2.1161366,20.4011103 1.85329584,21.1845958 C1.68955614,21.6726772 1.61892122,22.0714582 1.60332054,22.3387522 C1.56653518,22.9690134 2.04796159,23.5097428 2.67861652,23.5465052 C3.30927144,23.5832675 3.85033869,23.1021417 3.88712404,22.4718806 C3.89153905,22.3962361 3.92720561,22.1948747 4.02232326,21.9113445 C4.19091144,21.4088105 4.4738749,20.9009476 4.90054302,20.4213825 C6.19739077,18.9637558 8.51676851,18.0572641 12.2130194,18.0614424 C15.9085374,18.0656198 18.196218,18.931681 19.4362642,20.3082648 C19.8400068,20.7564622 20.1003134,21.228627 20.2486745,21.6947337 C20.2984561,21.8511326 20.3308348,21.9927219 20.3493287,22.1145003 C20.3583769,22.1740805 20.3609439,22.204177 20.3608161,22.1994492 C20.3778815,22.8305511 20.9036447,23.3283347 21.535141,23.3112799 C22.1666373,23.2942252 22.6647319,22.7687903 22.6476664,22.1376883 C22.640483,21.8720346 22.5809301,21.4798925 22.4287204,21.0016946 Z" id="Path-2-Copy-2"></path>
                </g>
            </g>
        </g>
    </g>
</svg>