<?xml version="1.0" encoding="UTF-8"?>
<svg width="658px" height="672px" viewBox="0 0 658 672" version="1.1" xmlns="http://www.w3.org/2000/svg" xmlns:xlink="http://www.w3.org/1999/xlink">
    <!-- Generator: Sketch 40.2 (33826) - http://www.bohemiancoding.com/sketch -->
    <title>interact</title>
    <desc>Created with Sketch.</desc>
    <defs>
        <rect id="path-1" x="7" y="0" width="238" height="148" rx="74"></rect>
        <mask id="mask-2" maskContentUnits="userSpaceOnUse" maskUnits="objectBoundingBox" x="0" y="0" width="238" height="148" fill="white">
            <use xlink:href="#path-1"></use>
        </mask>
    </defs>
    <g id="Page-1" stroke="none" stroke-width="1" fill="none" fill-rule="evenodd">
        <g id="interact" transform="translate(6.000000, 0.000000)">
            <polygon id="Rectangle-7-Copy" fill="#CBBFBF" opacity="0.288892663" points="0 550.909213 200.569401 532.29272 440.655963 550.909213 639 521.243987 639 672.010614 440.655963 632 200.569401 672.010614 0 632"></polygon>
            <g id="Group-2">
                <polygon id="Rectangle-7-Copy-2" fill="#BFAEAE" points="6 273.675841 205 227.440367 443.207951 273.675841 640 200 640 542.204893 443.207951 615.880734 205 574.440367 6 615.880734"></polygon>
                <path d="M0.5,421.5 L201.5,378.5" id="Line" stroke="#FFEEEE" stroke-width="10" stroke-linecap="square"></path>
                <path d="M133,394.5 L133,581.510695" id="Line" stroke="#FFEEEE" stroke-width="10" stroke-linecap="square"></path>
                <path d="M438.5,415.5 L203.5,379.5" id="Line" stroke="#FFEEEE" stroke-width="10" stroke-linecap="square"></path>
                <path d="M441.5,415.5 L641.5,356.5" id="Line" stroke="#FFEEEE" stroke-width="10" stroke-linecap="square"></path>
                <path d="M541,387.5 L541,580.5" id="Line" stroke="#FFEEEE" stroke-width="10" stroke-linecap="square"></path>
                <path d="M136,393.5 L136,248.5" id="Line" stroke="#FFEEEE" stroke-width="10" stroke-linecap="square"></path>
                <path d="M133.5,321.5 L5.5,346.5" id="Line" stroke="#FFEEEE" stroke-width="10" stroke-linecap="square"></path>
                <path d="M356,409 L356,598.5" id="Line" stroke="#FFEEEE" stroke-width="10" stroke-linecap="square"></path>
                <path d="M288,390.5 L288,253.5" id="Line" stroke="#FFEEEE" stroke-width="10" stroke-linecap="square"></path>
                <path d="M433.5,510.5 L214.5,477.5" id="Line" stroke="#FFEEEE" stroke-width="10" stroke-linecap="square"></path>
                <polygon id="Rectangle-7" stroke="#6C4B4B" stroke-width="20" stroke-linecap="round" stroke-linejoin="round" points="6 273.675841 205 227.440367 443.207951 273.675841 640 200 640 542.204893 443.207951 615.880734 205 574.440367 6 615.880734"></polygon>
                <path d="M443,276 L443,613" id="Line" stroke="#6C4B4B" stroke-width="20" stroke-linecap="square"></path>
                <path d="M206,229 L206,570" id="Line" stroke="#6C4B4B" stroke-width="20" stroke-linecap="square"></path>
                <g id="Group-2-Copy-6" transform="translate(50.000000, 0.000000)">
                    <g id="Group-4-Copy-25" transform="translate(200.000000, 64.000000)"></g>
                    <g id="Group" transform="translate(247.000000, 0.000000)">
                        <path d="M267.204323,6.57149995 C267.204323,6.57149995 224.042436,0 177.420234,0 C130.798031,0 87.6361445,6.57149995 87.6361445,6.57149995 C41.5473878,13.5575461 14.7854129,43.3247921 6.58545688,87.4504122 C6.58545688,87.4504122 -8.52651283e-14,130.520824 -8.52651283e-14,177.044217 C-8.52651283e-14,223.56761 6.58545688,266.638021 6.58545688,266.638021 C15.2244433,311.262981 43.7378194,338.844438 87.6361445,347.516934 C87.6361445,347.516934 98.6591135,349.193962 115.559426,350.852147 L162.346855,422.771207 C170.674271,431.076264 184.170917,431.076264 192.493613,422.771207 L239.285762,350.852147 C256.181354,349.193962 267.204323,347.516934 267.204323,347.516934 C313.123132,340.596838 340.324138,311.262981 348.25501,266.638021 C348.25501,266.638021 354.840467,223.56761 354.840467,177.044217 C354.840467,130.520824 348.25501,87.4504122 348.25501,87.4504122 C342.080259,42.4485921 313.123132,14.4290354 267.204323,6.57149995 Z" id="Fill-1-Copy" fill="#E3966B"></path>
                        <path d="M232.097375,174.999715 L233.956448,164.077128 L236.201933,150.85324 L236.330737,150.114764 L236.330737,149.363406 C236.330737,137.839733 226.953799,128.462795 215.425832,128.462795 L192.739137,128.462795 C197.2344,113.495759 211.05508,102.762085 227.447548,102.762085 C247.44653,102.762085 263.714487,119.030042 263.714487,139.029024 C263.714487,157.452304 249.906688,172.711295 232.097375,174.999715 L232.097375,174.999715 Z M199.95646,258.078356 L199.95646,258.82542 C199.95646,260.559982 198.548202,261.96824 196.81364,261.96824 L134.094633,261.96824 C132.360071,261.96824 130.951813,260.559982 130.951813,258.82542 L130.951813,258.116998 L113.430162,148.886831 C113.66201,147.379823 114.967225,146.22488 116.538635,146.22488 L123.266502,146.22488 L123.283676,146.22488 L123.31373,146.22488 L173.130861,146.22488 L215.425832,146.22488 C215.816538,146.22488 216.19007,146.293575 216.533547,146.426673 C217.568273,146.817379 218.345392,147.736181 218.525717,148.856777 L200.080971,257.339879 L199.95646,258.078356 Z M281.476572,139.029024 C281.476572,109.236637 257.239935,85 227.447548,85 C213.36926,85 200.04233,90.3883047 189.918328,100.168829 C181.9153,107.905662 176.599984,117.737708 174.47901,128.462795 L128.113829,128.462795 L104.409582,91.7493346 C101.747631,87.6276035 96.2519896,86.4468993 92.1302585,89.1045572 C88.012821,91.7665085 86.8278233,97.2621499 89.4897746,101.383881 L108.11914,130.240292 C100.777307,133.486155 95.6337299,140.832282 95.6337299,149.363406 L95.6337299,150.071829 L113.206902,259.628299 C113.631956,270.782734 122.837155,279.730325 134.094633,279.730325 L196.81364,279.730325 C208.053944,279.730325 217.250557,270.808494 217.697078,259.675527 L229.031838,193.015114 C258.094335,192.173594 281.476572,168.289021 281.476572,139.029024 L281.476572,139.029024 Z" id="Fill-1" fill="#FFFFFF"></path>
                    </g>
                    <g id="Group-Copy" transform="translate(0.000000, 215.000000)">
                        <path d="M121.182806,2.98704543 C121.182806,2.98704543 101.607978,0 80.4638243,0 C59.3196706,0 39.744843,2.98704543 39.744843,2.98704543 C18.8426181,6.16252097 6.7054971,19.6930873 2.98664382,39.7501874 C2.98664382,39.7501874 4.26325641e-14,59.3276471 4.26325641e-14,80.474644 C4.26325641e-14,101.621641 2.98664382,121.199101 2.98664382,121.199101 C6.90460669,141.483173 19.8360251,154.020199 39.744843,157.962243 C39.744843,157.962243 44.7439923,158.724528 52.408641,159.478248 L73.6277284,192.168731 C77.4043877,195.943756 83.5254018,195.943756 87.2999201,192.168731 L108.521149,159.478248 C116.183656,158.724528 121.182806,157.962243 121.182806,157.962243 C142.007956,154.816745 154.344186,141.483173 157.941005,121.199101 C157.941005,121.199101 160.927649,101.621641 160.927649,80.474644 C160.927649,59.3276471 157.941005,39.7501874 157.941005,39.7501874 C155.140625,19.2948146 142.007956,6.55865244 121.182806,2.98704543 Z" id="Fill-1-Copy" fill="#E3966B"></path>
                        <path d="M112.068423,111.762498 C112.068423,115.132572 109.898532,117.977649 107.331197,117.977649 L53.7122248,117.977649 C51.1428821,117.977649 48.9749991,115.132572 48.9749991,111.762498 L48.9749991,68.8965325 L60.8481729,68.8965325 L100.195249,68.8965325 L112.068423,68.8965325 L112.068423,111.762498 Z M64.8346688,52.0481827 C64.8346688,49.2778165 67.0768218,47.0223506 69.8308361,47.0223506 L91.2105782,47.0223506 C93.9665998,47.0223506 96.2087528,49.2778165 96.2087528,52.0481827 L96.2087528,60.8762011 L64.8346688,60.8762011 L64.8346688,52.0481827 Z M116.054918,60.8762011 L104.181745,60.8762011 L104.181745,52.0481827 C104.181745,44.8537112 98.3625847,39 91.2105782,39 L69.8308361,39 C62.6788296,39 56.8596697,44.8537112 56.8596697,52.0481827 L56.8596697,60.8762011 L44.9864959,60.8762011 C42.7844888,60.8762011 41,62.6712853 41,64.8863668 L41,111.762498 C41,119.613215 46.7027366,126 53.7122248,126 L107.331197,126 C114.340685,126 120.043422,119.613215 120.043422,111.762498 L120.043422,64.8863668 C120.043422,62.6712853 118.256925,60.8762011 116.054918,60.8762011 L116.054918,60.8762011 Z" id="Fill-1" fill="#FFEEEE"></path>
                    </g>
                </g>
                <use id="Rectangle-10" stroke="#BFAEAE" mask="url(#mask-2)" stroke-width="40" xlink:href="#path-1"></use>
                <polygon id="Star" stroke="#BFAEAE" stroke-width="10" stroke-linecap="round" stroke-linejoin="round" points="69.5 191.25 58.0381876 197.275831 60.227199 184.512916 50.9543979 175.474169 63.7690938 173.612084 69.5 162 75.2309062 173.612084 88.0456021 175.474169 78.772801 184.512916 80.9618124 197.275831"></polygon>
                <polygon id="Star-Copy" stroke="#BFAEAE" stroke-width="10" stroke-linecap="round" stroke-linejoin="round" points="123.5 191.25 112.038188 197.275831 114.227199 184.512916 104.954398 175.474169 117.769094 173.612084 123.5 162 129.230906 173.612084 142.045602 175.474169 132.772801 184.512916 134.961812 197.275831"></polygon>
                <polygon id="Star-Copy-2" stroke="#BFAEAE" stroke-width="10" stroke-linecap="round" stroke-linejoin="round" points="177.5 191.25 166.038188 197.275831 168.227199 184.512916 158.954398 175.474169 171.769094 173.612084 177.5 162 183.230906 173.612084 196.045602 175.474169 186.772801 184.512916 188.961812 197.275831"></polygon>
                <text id="7.5" font-family="Montserrat-Bold, Montserrat" font-size="100" font-weight="bold" fill="#BFAEAE">
                    <tspan x="57" y="109">7.5</tspan>
                </text>
            </g>
        </g>
    </g>
</svg>