<?xml version="1.0" encoding="UTF-8"?>
<svg width="655px" height="704px" viewBox="0 0 655 704" version="1.1" xmlns="http://www.w3.org/2000/svg" xmlns:xlink="http://www.w3.org/1999/xlink">
    <!-- Generator: Sketch 40.2 (33826) - http://www.bohemiancoding.com/sketch -->
    <title>training</title>
    <desc>Created with Sketch.</desc>
    <defs></defs>
    <g id="Page-1" stroke="none" stroke-width="1" fill="none" fill-rule="evenodd">
        <g id="training" transform="translate(0.000000, 15.000000)">
            <ellipse id="Oval-2-Copy-3" fill="#CBBFBF" opacity="0.460371377" cx="327" cy="671" rx="327" ry="18"></ellipse>
            <g id="Group-2" transform="translate(23.000000, 98.000000)">
                <ellipse id="Oval-6-Copy-4" fill="#BFAEAE" cx="260.949777" cy="260.81575" rx="260.949777" ry="260.81575"></ellipse>
                <ellipse id="Oval-6" stroke="#6C4B4B" stroke-width="30" cx="260.949777" cy="260.81575" rx="260.949777" ry="260.81575"></ellipse>
                <ellipse id="Oval-6-Copy-5" fill="#FFEEEE" cx="255.247752" cy="253.403249" rx="198.676323" ry="198.574281"></ellipse>
                <ellipse id="Oval-6-Copy" stroke="#6C4B4B" stroke-width="30" cx="260.819181" cy="260.685221" rx="191.390609" ry="191.292309"></ellipse>
                <ellipse id="Oval-6-Copy-6" fill="#BFAEAE" cx="268.415745" cy="252.857237" rx="119.272888" ry="119.211628"></ellipse>
                <ellipse id="Oval-6-Copy-2" stroke="#6C4B4B" stroke-width="30" cx="261.130031" cy="260.995912" rx="111.130031" ry="111.072954"></ellipse>
                <ellipse id="Oval-6-Copy-7" fill="#E3966B" cx="258.669812" cy="262.820469" rx="59.3840976" ry="59.3535973"></ellipse>
                <ellipse id="Oval-6-Copy-3" stroke="#6C4B4B" stroke-width="30" cx="261.24124" cy="261.107064" rx="46.0983833" ry="46.0747067"></ellipse>
                <path d="M121.285714,481.895223 L47.826021,555.317187" id="Line" stroke="#6C4B4B" stroke-width="30" stroke-linecap="round" stroke-linejoin="round"></path>
                <path d="M473.571429,481.895223 L400.111735,555.317187" id="Line-Copy" stroke="#6C4B4B" stroke-width="30" stroke-linecap="round" stroke-linejoin="round" transform="translate(436.714286, 518.733436) scale(-1, 1) translate(-436.714286, -518.733436) "></path>
                <g id="Group" transform="translate(333.428571, 259.580894)" stroke="#FFFFFF" stroke-width="11">
                    <ellipse id="Oval-7" cx="16.7142857" cy="15.9724217" rx="9.51428571" ry="9.58345303"></ellipse>
                    <path d="M21.9038961,8.42182236 L27.6701299,0.290407668" id="Line" stroke-linecap="round" stroke-linejoin="round"></path>
                    <path d="M25.3636364,29.3311744 L31.1298701,21.1997597" id="Line-Copy-3" stroke-linecap="round" stroke-linejoin="round" transform="translate(28.246753, 25.265467) rotate(90.000000) translate(-28.246753, -25.265467) "></path>
                    <path d="M2.2987013,10.7450837 L8.06493506,2.61366901" id="Line-Copy-4" stroke-linecap="round" stroke-linejoin="round" transform="translate(5.181818, 6.679376) rotate(90.000000) translate(-5.181818, -6.679376) "></path>
                    <path d="M5.18181818,33.9776971 L10.9480519,25.8462824" id="Line-Copy-2" stroke-linecap="round" stroke-linejoin="round"></path>
                </g>
                <g id="Group-Copy" transform="translate(238.285714, 188.474576)" stroke="#FFFFFF" stroke-width="11">
                    <ellipse id="Oval-7" cx="16.7142857" cy="15.9724217" rx="9.51428571" ry="9.58345303"></ellipse>
                    <path d="M21.9038961,8.42182236 L27.6701299,0.290407668" id="Line" stroke-linecap="round" stroke-linejoin="round"></path>
                    <path d="M25.3636364,29.3311744 L31.1298701,21.1997597" id="Line-Copy-3" stroke-linecap="round" stroke-linejoin="round" transform="translate(28.246753, 25.265467) rotate(90.000000) translate(-28.246753, -25.265467) "></path>
                    <path d="M2.2987013,10.7450837 L8.06493506,2.61366901" id="Line-Copy-4" stroke-linecap="round" stroke-linejoin="round" transform="translate(5.181818, 6.679376) rotate(90.000000) translate(-5.181818, -6.679376) "></path>
                    <path d="M5.18181818,33.9776971 L10.9480519,25.8462824" id="Line-Copy-2" stroke-linecap="round" stroke-linejoin="round"></path>
                </g>
                <g id="Group-Copy-2" transform="translate(149.142857, 390.656394)" stroke="#FFFFFF" stroke-width="11">
                    <ellipse id="Oval-7" cx="16.7142857" cy="15.9724217" rx="9.51428571" ry="9.58345303"></ellipse>
                    <path d="M21.9038961,8.42182236 L27.6701299,0.290407668" id="Line" stroke-linecap="round" stroke-linejoin="round"></path>
                    <path d="M25.3636364,29.3311744 L31.1298701,21.1997597" id="Line-Copy-3" stroke-linecap="round" stroke-linejoin="round" transform="translate(28.246753, 25.265467) rotate(90.000000) translate(-28.246753, -25.265467) "></path>
                    <path d="M2.2987013,10.7450837 L8.06493506,2.61366901" id="Line-Copy-4" stroke-linecap="round" stroke-linejoin="round" transform="translate(5.181818, 6.679376) rotate(90.000000) translate(-5.181818, -6.679376) "></path>
                    <path d="M5.18181818,33.9776971 L10.9480519,25.8462824" id="Line-Copy-2" stroke-linecap="round" stroke-linejoin="round"></path>
                </g>
                <g id="Group-Copy-3" transform="translate(255.428571, 265.577812)" stroke="#FFFFFF" stroke-width="11">
                    <ellipse id="Oval-7" cx="16.7142857" cy="15.9724217" rx="9.51428571" ry="9.58345303"></ellipse>
                    <path d="M21.9038961,8.42182236 L27.6701299,0.290407668" id="Line" stroke-linecap="round" stroke-linejoin="round"></path>
                    <path d="M25.3636364,29.3311744 L31.1298701,21.1997597" id="Line-Copy-3" stroke-linecap="round" stroke-linejoin="round" transform="translate(28.246753, 25.265467) rotate(90.000000) translate(-28.246753, -25.265467) "></path>
                    <path d="M2.2987013,10.7450837 L8.06493506,2.61366901" id="Line-Copy-4" stroke-linecap="round" stroke-linejoin="round" transform="translate(5.181818, 6.679376) rotate(90.000000) translate(-5.181818, -6.679376) "></path>
                    <path d="M5.18181818,33.9776971 L10.9480519,25.8462824" id="Line-Copy-2" stroke-linecap="round" stroke-linejoin="round"></path>
                </g>
            </g>
            <g id="Group-3" transform="translate(374.000000, 0.000000)">
                <ellipse id="Oval-8-Copy" fill="#E3966B" cx="149.462443" cy="144.326201" rx="94.4426846" ry="94.3262012"></ellipse>
                <ellipse id="Oval-8" stroke="#6C4B4B" stroke-width="30" cx="133" cy="131.108483" rx="91.9395973" ry="91.8262012"></ellipse>
                <path d="M184.325503,131.108483 L265.553691,131.108483" id="Line" stroke="#6C4B4B" stroke-width="30" stroke-linecap="round" stroke-linejoin="round"></path>
                <path d="M92.385906,41.0653153 L173.614094,41.0653153" id="Line-Copy-6" stroke="#6C4B4B" stroke-width="30" stroke-linecap="round" stroke-linejoin="round" transform="translate(133.000000, 41.065315) rotate(90.000000) translate(-133.000000, -41.065315) "></path>
                <path d="M92.385906,222.934685 L173.614094,222.934685" id="Line-Copy-7" stroke="#6C4B4B" stroke-width="30" stroke-linecap="round" stroke-linejoin="round" transform="translate(133.000000, 222.934685) rotate(90.000000) translate(-133.000000, -222.934685) "></path>
                <path d="M0.446308725,131.108483 L81.6744966,131.108483" id="Line-Copy-5" stroke="#6C4B4B" stroke-width="30" stroke-linecap="round" stroke-linejoin="round"></path>
            </g>
        </g>
    </g>
</svg>